<?xml version="1.0" encoding="UTF-8"?>
<svg version="1.1" xmlns="http://www.w3.org/2000/svg" width="1024" height="1024">
<path d="M0 0 C337.92 0 675.84 0 1024 0 C1024 337.92 1024 675.84 1024 1024 C686.08 1024 348.16 1024 0 1024 C0 686.08 0 348.16 0 0 Z " fill="#FFFFFF" transform="translate(0,0)"/>
<path d="M0 0 C3.35932576 4.08566646 4.56096854 7.50627692 4.56976891 12.76822567 C4.5762178 13.74634808 4.58266669 14.7244705 4.589311 15.73223299 C4.5846652 17.33260946 4.5846652 17.33260946 4.57992554 18.96531677 C4.58445665 20.10466661 4.58898776 21.24401645 4.59365618 22.41789204 C4.60633873 26.24404908 4.60467731 30.07006447 4.60302734 33.89624023 C4.60792248 36.63598163 4.61575825 39.37571302 4.62338257 42.115448 C4.6399901 48.78971489 4.64549197 55.46394646 4.64660732 62.13823228 C4.64755778 67.5628383 4.65166792 72.98743266 4.65800858 78.41203499 C4.67561916 93.79127661 4.68484756 109.17049032 4.68334763 124.5497421 C4.68326772 125.3787105 4.6831878 126.20767891 4.68310547 127.06176758 C4.68302371 127.89174773 4.68294195 128.72172788 4.68285771 129.57685895 C4.68204453 143.03261057 4.70119067 156.48825034 4.7293822 169.9439696 C4.75809971 183.75969646 4.77192317 197.57536874 4.77019465 211.39112622 C4.76953043 219.14789337 4.77503699 226.90454321 4.79655075 234.66128349 C4.81474753 241.26438426 4.81912225 247.86731451 4.8055319 254.47042947 C4.7989948 257.83941981 4.80107787 261.20781537 4.8162384 264.57681847 C4.83161142 268.22907348 4.82243418 271.88046398 4.80697632 275.53269958 C4.81726344 276.59738651 4.82755057 277.66207344 4.83814943 278.75902361 C4.76986096 286.04055587 3.48301048 289.22609955 -1.32348633 294.66308594 C-5.25346046 296.57389026 -9.2020987 296.26075043 -13.51171875 296.203125 C-15.07136604 296.19131195 -15.07136604 296.19131195 -16.66252136 296.17926025 C-32.4328127 295.90116319 -48.14742565 294.25374048 -63.84352493 292.80617905 C-71.04316211 292.14575473 -78.24506909 291.51011793 -85.446455 290.86910057 C-88.13012395 290.62984245 -90.81367041 290.38924426 -93.49720764 290.14851379 C-104.00922093 289.2084056 -114.52310889 288.32594456 -125.046875 287.52734375 C-126.24829636 287.43605194 -127.44971771 287.34476013 -128.68754578 287.2507019 C-134.11168817 286.84166798 -139.53646755 286.4435743 -144.9621582 286.05566406 C-146.84066589 285.91612786 -148.71916579 285.77648676 -150.59765625 285.63671875 C-151.41470032 285.58176743 -152.23174438 285.5268161 -153.07354736 285.47019958 C-165.48665411 284.53205687 -165.48665411 284.53205687 -169.52734375 281.375 C-173.81087199 275.2774509 -173.81087199 275.2774509 -173.82172108 270.58791065 C-173.82617892 269.69649618 -173.83063676 268.80508171 -173.83522969 267.88665468 C-173.83504533 266.90117243 -173.83486097 265.91569019 -173.83467102 264.90034485 C-173.83834771 263.85818556 -173.8420244 262.81602626 -173.8458125 261.74228638 C-173.8568838 258.22703044 -173.86069901 254.71180401 -173.86450195 251.1965332 C-173.87076401 248.68545944 -173.87741057 246.17438662 -173.88441467 243.66331482 C-173.9036684 236.11047309 -173.91424715 228.55763653 -173.92314246 221.00477651 C-173.92752425 217.44875725 -173.93289139 213.89273949 -173.93813133 210.33672142 C-173.95514561 198.51653636 -173.96963955 186.69635223 -173.97688007 174.87615681 C-173.97879 171.80781872 -173.98071033 168.73948064 -173.98266602 165.67114258 C-173.98314976 164.90851237 -173.9836335 164.14588217 -173.9841319 163.36014196 C-173.99243128 151.00741962 -174.01776571 138.65479415 -174.05024669 126.30211411 C-174.08331659 113.62214589 -174.10132882 100.94222689 -174.10452431 88.26221532 C-174.10668963 81.14196118 -174.11544107 74.02184825 -174.14098549 66.90163612 C-174.16496119 60.20315332 -174.16851861 53.5049686 -174.15822411 46.80643654 C-174.15772747 44.34699153 -174.16408535 41.88753422 -174.17778015 39.42812729 C-174.19542524 36.07163603 -174.18842837 32.71606467 -174.17524719 29.35957336 C-174.18621644 28.38524473 -174.19718568 27.4109161 -174.20848733 26.40706235 C-174.15118872 20.36760797 -173.42882272 16.64500196 -169.6875 11.8125 C-165.66985034 9.16055636 -162.22849955 8.38513124 -157.47276306 8.03413391 C-155.63325073 7.88911438 -155.63325073 7.88911438 -153.75657654 7.74116516 C-152.41056981 7.6479195 -151.06454563 7.55492558 -149.71850586 7.4621582 C-148.29037465 7.35441748 -146.86232635 7.24557286 -145.43435669 7.13571167 C-141.56491961 6.84128327 -137.69449194 6.56264125 -133.82367015 6.28709817 C-129.75986793 5.99537476 -125.69709321 5.68996005 -121.63417053 5.38627625 C-114.80465301 4.87780218 -107.97448864 4.37893773 -101.14379883 3.88647461 C-93.27469236 3.31909444 -85.40654275 2.73976485 -77.53884405 2.15320522 C-69.13362142 1.52659522 -60.72786691 0.90738475 -52.32188344 0.29107261 C-49.91532407 0.11423506 -47.50885543 -0.06379721 -45.10239983 -0.24204063 C-41.29831169 -0.52333266 -37.49388304 -0.79951414 -33.68915176 -1.07196426 C-32.30285226 -1.17193493 -30.9166632 -1.27345294 -29.53060722 -1.37674522 C-4.21457278 -3.25925811 -4.21457278 -3.25925811 0 0 Z " fill="#005A36" transform="translate(314.6875,363.1875)"/>
<path d="M0 0 C13.9075193 9.02413469 22.38103388 21.57061113 26.5 37.625 C29.98187467 54.53696267 26.90464828 71.63223496 17.6875 86.1875 C14.92054556 89.79529571 11.9524616 93.02767133 8.6875 96.1875 C8.10097656 96.77144531 7.51445312 97.35539063 6.91015625 97.95703125 C-4.08527023 108.17630998 -18.33320228 110.99696388 -32.8671875 110.53515625 C-47.63034346 109.65466875 -60.47009421 101.93051809 -70.3125 91.1875 C-81.81711238 75.71577991 -84.76036373 59.03229265 -83.3125 40.1875 C-82.43254039 35.61444565 -81.11044817 31.47635553 -79.3125 27.1875 C-79.02375 26.45660156 -78.735 25.72570312 -78.4375 24.97265625 C-71.9633645 10.37694898 -59.54785564 1.27002513 -45.3125 -4.8125 C-30.59213868 -10.00690652 -13.3757408 -7.54788399 0 0 Z " fill="#F5F8F6" transform="translate(259.3125,418.8125)"/>
<path d="M0 0 C1.9749741 1.46514369 3.3393048 3.02249434 4.55859375 5.15625 C4.88859375 2.84625 5.21859375 0.53625 5.55859375 -1.84375 C10.17859375 -1.84375 14.79859375 -1.84375 19.55859375 -1.84375 C19.67201253 6.45850476 19.76354748 14.76014703 19.81765461 23.06297112 C19.84363666 26.91922904 19.87882193 30.77492486 19.93579102 34.63085938 C19.99052356 38.35917732 20.02009973 42.08695812 20.03297997 45.81564713 C20.04214669 47.23092214 20.06004575 48.64617111 20.08724403 50.06121445 C20.27189196 60.07539732 19.28469549 67.87413629 12.43359375 75.53125 C2.33987621 81.2363947 -7.91213256 82.97340551 -19.375 80.53125 C-25.56865358 78.41956293 -30.11490454 74.8296701 -33.44140625 69.15625 C-34.23637167 66.3403484 -34.38858138 64.11444254 -34.44140625 61.15625 C-32.02286179 61.02088371 -29.61190842 60.92204721 -27.19140625 60.84375 C-26.50949219 60.80185547 -25.82757812 60.75996094 -25.125 60.71679688 C-23.11328125 60.66796875 -23.11328125 60.66796875 -19.44140625 61.15625 C-17.14453125 63.61328125 -17.14453125 63.61328125 -15.44140625 66.15625 C-10.65689736 67.7510863 -6.3348904 67.71397669 -1.62890625 65.90625 C1.75339424 64.04930071 2.3128822 63.62257778 3.55859375 60.15625 C3.79932569 57.33539272 3.79932569 57.33539272 3.68359375 54.40625 C3.66554688 53.42140625 3.6475 52.4365625 3.62890625 51.421875 C3.60570312 50.67421875 3.5825 49.9265625 3.55859375 49.15625 C2.16640625 50.3628125 2.16640625 50.3628125 0.74609375 51.59375 C-4.26833742 55.93959035 -9.53024368 55.49818902 -15.921875 55.42578125 C-21.62009905 54.98940227 -25.14776295 53.48138497 -29.1484375 49.42578125 C-36.78955449 40.11142696 -37.46988171 29.76166062 -36.44140625 18.15625 C-34.83101623 10.86156665 -31.00700546 5.09423909 -25.44140625 0.15625 C-17.81368 -4.62977431 -7.74559258 -4.50886886 0 0 Z " fill="#025331" transform="translate(732.44140625,390.84375)"/>
<path d="M0 0 C4.95 0 9.9 0 15 0 C15 27.06 15 54.12 15 82 C10.05 82 5.1 82 0 82 C-0.33 80.02 -0.66 78.04 -1 76 C-1.886875 76.78375 -2.77375 77.5675 -3.6875 78.375 C-8.63168057 82.74427585 -13.65995812 83.51831969 -20.0859375 83.37109375 C-26.73235452 82.52470016 -32.14714757 79.51074207 -36.4375 74.375 C-43.00045268 64.37253954 -43.2989803 51.82542497 -41.6015625 40.29296875 C-39.5833407 32.80982167 -34.18105565 27.01874686 -27.75 22.9375 C-19.98035226 20.99508807 -12.71457451 20.85052915 -5.62109375 24.83203125 C-4 26 -4 26 -1 29 C-0.67 19.43 -0.34 9.86 0 0 Z " fill="#015330" transform="translate(571,572)"/>
<path d="M0 0 C6.72985426 3.80290177 11.06558396 9.71198418 13.21484375 17.125 C15.13321557 28.79377403 14.71247563 40.50582412 8.58984375 50.85546875 C5.53043158 55.05567867 1.6242169 57.62141603 -3.3125 59 C-10.99452183 59.95913225 -17.49286575 60.02242373 -23.859375 55.2890625 C-25.04852885 54.23416796 -26.18846944 53.12403056 -27.3125 52 C-27.3125 61.24 -27.3125 70.48 -27.3125 80 C-32.2625 80 -37.2125 80 -42.3125 80 C-42.3125 53.27 -42.3125 26.54 -42.3125 -1 C-37.6925 -1 -33.0725 -1 -28.3125 -1 C-27.9825 1.31 -27.6525 3.62 -27.3125 6 C-26.61125 5.236875 -25.91 4.47375 -25.1875 3.6875 C-17.8079976 -3.21073051 -9.17605346 -4.09669958 0 0 Z " fill="#015330" transform="translate(658.3125,493)"/>
<path d="M0 0 C43.68627451 0 43.68627451 0 51.4375 7.1875 C56.55442728 14.00040601 57.91164755 21.6410908 57 30 C55.73321501 37.5208226 52.82781656 43.01158089 47 48 C40.19346265 52.17081438 32.89725879 52.13666385 25.1875 52.0625 C22.155625 52.041875 19.12375 52.02125 16 52 C16 60.91 16 69.82 16 79 C10.72 79 5.44 79 0 79 C0 52.93 0 26.86 0 0 Z " fill="#015431" transform="translate(379,472)"/>
<path d="M0 0 C5.28 0 10.56 0 16 0 C16 10.56 16 21.12 16 32 C26.89 32 37.78 32 49 32 C49 21.44 49 10.88 49 0 C54.28 0 59.56 0 65 0 C65 26.4 65 52.8 65 80 C59.72 80 54.44 80 49 80 C49 68.78 49 57.56 49 46 C38.11 46 27.22 46 16 46 C16 57.22 16 68.44 16 80 C10.72 80 5.44 80 0 80 C0 53.6 0 27.2 0 0 Z " fill="#015230" transform="translate(379,368)"/>
<path d="M0 0 C6.88493422 4.81054553 11.438662 10.63881613 13 19 C13.67110831 30.69277175 13.59511524 41.70784518 5.875 51.2421875 C-0.51859349 57.23618139 -8.8958858 59.38541605 -17.4609375 59.28515625 C-24.10278735 58.53922542 -31.42481748 55.96734102 -36 51 C-42.48508069 41.98932256 -45.10311909 33.08210411 -44 22 C-42.06402172 12.43315842 -37.89925002 5.73414509 -30 0 C-21.78985708 -5.13133933 -8.29507022 -5.16381855 0 0 Z " fill="#035432" transform="translate(723,494)"/>
<path d="M0 0 C6 1 6 1 8.3125 3.4375 C11.36829287 8.07777806 11.14825975 11.84045196 11.14717102 17.27349854 C11.15084771 18.246943 11.1545244 19.22038747 11.1583125 20.22333026 C11.16938164 23.50598843 11.17319864 26.78861499 11.17700195 30.07128906 C11.18326414 32.41649985 11.18991072 34.76170964 11.19691467 37.10691833 C11.21434665 43.49335927 11.22488232 49.87979271 11.2331202 56.26625156 C11.23826544 60.25337671 11.24434137 64.2404995 11.25063133 68.22762299 C11.26764477 79.26460565 11.28213905 90.30158732 11.28938007 101.33858109 C11.29129 104.20342256 11.29321033 107.06826403 11.29516602 109.93310547 C11.29564976 110.64515753 11.2961335 111.3572096 11.2966319 112.090839 C11.3049326 123.62622457 11.33026964 135.16150646 11.36274669 146.69684675 C11.39581099 158.53721107 11.41382828 170.37752269 11.41702431 182.21793342 C11.41919006 188.86698878 11.42839021 195.51591018 11.45348549 202.16492462 C11.47670958 208.4193618 11.48102212 214.67352662 11.47072411 220.92799568 C11.47022727 223.22499305 11.4765911 225.52200356 11.49028015 227.81896019 C11.50791156 230.95249138 11.5009355 234.08503587 11.48774719 237.21856689 C11.49871644 238.12966225 11.50968568 239.0407576 11.52098733 239.97946191 C11.46512251 245.46929878 10.71106386 248.67534258 7 253 C4 255 4 255 0 255 C0 170.85 0 86.7 0 0 Z " fill="#005632" transform="translate(327,383)"/>
<path d="M0 0 C6.23931716 5.28229043 8.88023694 11.19927193 11 19 C11 22.96 11 26.92 11 31 C-2.2 31 -15.4 31 -29 31 C-26.93808142 39.47553868 -26.93808142 39.47553868 -23.375 42.5625 C-19.07889792 44.39232125 -15.60253885 44.72047109 -11 44 C-7.23601432 42.2880813 -7.23601432 42.2880813 -5 39 C-0.05 39 4.9 39 10 39 C7.51207352 46.67110665 5.26885947 51.20918344 -2 55 C-11.56451288 59.05067132 -19.80989537 59.11627114 -29.421875 55.25 C-37.2224991 51.46787922 -40.82657936 45.9466649 -44 38 C-46.84583069 29.51688685 -46.01440667 18.02530306 -42.19921875 10.046875 C-38.48167144 3.70161509 -33.85276815 -0.39467994 -27 -3.25 C-18.08154125 -5.43006769 -7.68996894 -5.40748812 0 0 Z " fill="#035431" transform="translate(807,392)"/>
<path d="M0 0 C6.1486854 3.64214976 10.78718064 8.50035161 13.4375 15.1875 C14.5 20 14.5 20 14.5 33 C1.3 33 -11.9 33 -25.5 33 C-22.37351576 41.48546332 -22.37351576 41.48546332 -18.5 45 C-15.82296769 45.8923441 -13.90616916 46.25160342 -11.125 46.375 C-10.37476563 46.42398438 -9.62453125 46.47296875 -8.8515625 46.5234375 C-6.21846668 46.17251722 -6.21846668 46.17251722 -4.19921875 43.49609375 C-1.20957028 40.73142606 0.26129964 40.46273749 4.27148438 40.56054688 C5.28178711 40.62338867 5.28178711 40.62338867 6.3125 40.6875 C7.00537109 40.71005859 7.69824219 40.73261719 8.41210938 40.75585938 C10.10901573 40.81437339 11.80479861 40.9040452 13.5 41 C10.7393529 49.3631368 8.35734554 53.52299544 0.359375 57.6015625 C-3.8950433 59.37288343 -7.87704026 59.47983338 -12.4375 59.4375 C-13.19740234 59.45748047 -13.95730469 59.47746094 -14.74023438 59.49804688 C-22.40630858 59.49150027 -29.06518821 56.43481179 -34.5 51 C-40.87375723 41.30966561 -42.46326189 32.54739563 -41.5 21 C-39.44474189 12.19629127 -35.74230723 6.39902446 -28.4765625 1.11328125 C-20.1436484 -3.58015851 -8.67980369 -3.95383696 0 0 Z " fill="#035331" transform="translate(495.5,390)"/>
<path d="M0 0 C6.17979536 4.53609721 10.11771019 9.96978412 11.89453125 17.390625 C11.89453125 22.340625 11.89453125 27.290625 11.89453125 32.390625 C-0.97546875 32.390625 -13.84546875 32.390625 -27.10546875 32.390625 C-24.74609672 39.65475095 -24.74609672 39.65475095 -20.10546875 44.390625 C-16.46140813 45.60531187 -12.85959676 46.31196777 -9.10546875 45.390625 C-8.35652344 44.56433594 -7.60757813 43.73804688 -6.8359375 42.88671875 C-3.82548986 40.13467864 -2.3514461 39.853185 1.66601562 39.95117188 C2.67631836 40.01401367 2.67631836 40.01401367 3.70703125 40.078125 C4.39990234 40.10068359 5.09277344 40.12324219 5.80664062 40.14648438 C7.50354698 40.20499839 9.19932986 40.2946702 10.89453125 40.390625 C9.26724623 47.36470367 7.00703872 51.52226327 0.89453125 55.390625 C-6.93409782 59.58453343 -16.53581742 59.98617498 -25.05078125 57.546875 C-33.01237717 53.94346156 -38.91951218 47.53251401 -42.10546875 39.390625 C-44.34462296 28.03604869 -43.95555769 17.39327175 -37.85546875 7.328125 C-29.42015291 -3.79115497 -12.18809329 -6.618391 0 0 Z " fill="#025431" transform="translate(639.10546875,596.609375)"/>
<path d="M0 0 C5.85873394 6.36091113 6.76611431 13.53809555 6.578125 21.87890625 C6.57246521 22.8427977 6.56680542 23.80668915 6.56097412 24.79978943 C6.53877407 27.84622121 6.48860936 30.89143016 6.4375 33.9375 C6.41741381 36.01625893 6.39916677 38.09503649 6.3828125 40.17382812 C6.3389631 45.24134892 6.27005081 50.30796791 6.1875 55.375 C1.5675 55.375 -3.0525 55.375 -7.8125 55.375 C-8.3075 52.405 -8.3075 52.405 -8.8125 49.375 C-9.699375 50.15875 -10.58625 50.9425 -11.5 51.75 C-16.74886558 56.38853238 -22.01925054 56.82087468 -28.8046875 56.6875 C-34.71634543 56.07330177 -38.85236431 53.75270429 -42.75 49.3125 C-46.13930785 44.48530397 -46.49980902 40.1121211 -45.8125 34.375 C-44.08367826 29.55496982 -41.14174647 26.06875336 -36.8125 23.375 C-30.57134712 20.78097044 -24.4478522 19.75388161 -17.75 19.1875 C-16.88439453 19.10564453 -16.01878906 19.02378906 -15.12695312 18.93945312 C-13.02300226 18.74184448 -10.91785418 18.55704995 -8.8125 18.375 C-9.25916016 16.456875 -9.25916016 16.456875 -9.71484375 14.5 C-9.96609009 13.42105469 -9.96609009 13.42105469 -10.22241211 12.3203125 C-10.72670251 10.23720259 -10.72670251 10.23720259 -12.375 8.375 C-16.16867171 6.81862186 -19.78012244 6.68564134 -23.8125 7.375 C-26.31410818 9.25120613 -27.43195652 10.61391303 -28.8125 13.375 C-33.4325 13.375 -38.0525 13.375 -42.8125 13.375 C-42.59168851 7.96511846 -41.42070874 4.88995808 -37.65234375 0.953125 C-27.21050883 -8.00335336 -11.34417445 -6.55441191 0 0 Z " fill="#045331" transform="translate(485.8125,495.625)"/>
<path d="M0 0 C4.06404913 2.60577268 6.45113146 5.65417564 7.9921875 10.27734375 C8.07906549 11.82704823 8.1098741 13.38024082 8.10571289 14.93237305 C8.10563736 15.8731218 8.10556183 16.81387054 8.10548401 17.78312683 C8.10032272 18.7957106 8.09516144 19.80829437 8.08984375 20.8515625 C8.0884288 21.89053177 8.08701385 22.92950104 8.08555603 23.99995422 C8.07995406 27.32161323 8.06740122 30.64320508 8.0546875 33.96484375 C8.04967275 36.21549382 8.0451098 38.46614494 8.04101562 40.71679688 C8.02998398 46.23700508 8.01271801 51.75716303 7.9921875 57.27734375 C3.7021875 57.27734375 -0.5878125 57.27734375 -5.0078125 57.27734375 C-5.5028125 54.30734375 -5.5028125 54.30734375 -6.0078125 51.27734375 C-6.7090625 52.06109375 -7.4103125 52.84484375 -8.1328125 53.65234375 C-13.52005025 58.57112604 -18.98415924 58.72006229 -26.03125 58.59765625 C-32.16416831 57.93768341 -37.1269796 55.08957654 -41.0078125 50.27734375 C-42.88493334 44.64598124 -43.2439429 37.63338003 -41.171875 32.0078125 C-37.70616014 26.66968123 -32.30851227 23.98328206 -26.203125 22.67749023 C-23.14203736 22.22255099 -20.08508384 21.85471304 -17.0078125 21.52734375 C-15.94691406 21.40230469 -14.88601563 21.27726562 -13.79296875 21.1484375 C-11.19914665 20.84465653 -8.6045747 20.55465546 -6.0078125 20.27734375 C-6.45447266 18.35921875 -6.45447266 18.35921875 -6.91015625 16.40234375 C-7.16140259 15.32339844 -7.16140259 15.32339844 -7.41772461 14.22265625 C-7.92201501 12.13954634 -7.92201501 12.13954634 -9.5703125 10.27734375 C-13.36398421 8.72096561 -16.97543494 8.58798509 -21.0078125 9.27734375 C-23.50942068 11.15354988 -24.62726902 12.51625678 -26.0078125 15.27734375 C-30.9578125 15.27734375 -35.9078125 15.27734375 -41.0078125 15.27734375 C-39.76650099 7.82947468 -37.12788388 4.30606152 -31.10546875 -0.12109375 C-22.14681119 -4.97011761 -9.02530699 -4.26954758 0 0 Z " fill="#025230" transform="translate(678.0078125,390.72265625)"/>
<path d="M0 0 C16.83 0 33.66 0 51 0 C51 4.29 51 8.58 51 13 C39.45 13 27.9 13 16 13 C16 20.26 16 27.52 16 35 C25.9 35 35.8 35 46 35 C46 39.29 46 43.58 46 48 C36.1 48 26.2 48 16 48 C16 58.56 16 69.12 16 80 C10.72 80 5.44 80 0 80 C0 53.6 0 27.2 0 0 Z " fill="#00512E" transform="translate(379,574)"/>
<path d="M0 0 C4.60943561 2.6825404 7.58203653 5.9950437 9.74560547 10.93212891 C10.9217425 15.53676089 10.87275364 19.85380269 10.8203125 24.5859375 C10.8174826 25.55407379 10.81465271 26.52221008 10.81173706 27.51968384 C10.80058696 30.59658428 10.7754918 33.67318828 10.75 36.75 C10.73996352 38.8424437 10.73083884 40.93489198 10.72265625 43.02734375 C10.70066453 48.14334251 10.66617025 53.25912108 10.625 58.375 C5.675 58.375 0.725 58.375 -4.375 58.375 C-4.38958252 57.25528809 -4.40416504 56.13557617 -4.41918945 54.98193359 C-4.47734886 50.81071726 -4.55458023 46.64003081 -4.63745117 42.46923828 C-4.67061773 40.66724271 -4.69867525 38.86514533 -4.72143555 37.06298828 C-4.75513432 34.46603177 -4.80745649 31.87000134 -4.86328125 29.2734375 C-4.86967117 28.4732016 -4.8760611 27.6729657 -4.88264465 26.84848022 C-5.00940354 21.97940424 -5.73969906 18.6184683 -8.375 14.375 C-10.94981738 12.18163704 -13.12843337 12.26509073 -16.375 12.5 C-20.16357295 13.08557087 -22.01500415 14.25980548 -24.375 17.375 C-26.03849319 20.70198637 -25.61878057 24.43929385 -25.69140625 28.1015625 C-25.71218735 28.96437836 -25.73296844 29.82719421 -25.75437927 30.71615601 C-25.81986034 33.47735493 -25.87875298 36.23865038 -25.9375 39 C-25.9806866 40.86980172 -26.02430093 42.73959362 -26.06835938 44.609375 C-26.17554024 49.19781728 -26.27681175 53.78635683 -26.375 58.375 C-31.325 58.375 -36.275 58.375 -41.375 58.375 C-41.375 38.905 -41.375 19.435 -41.375 -0.625 C-36.755 -0.625 -32.135 -0.625 -27.375 -0.625 C-27.045 1.685 -26.715 3.995 -26.375 6.375 C-25.67375 5.611875 -24.9725 4.84875 -24.25 4.0625 C-17.38161402 -2.35794776 -8.71693744 -3.94573494 0 0 Z " fill="#015633" transform="translate(509.375,595.625)"/>
<path d="M0 0 C2.5 2.5 2.5 2.5 4 5 C4.4125 5.66 4.825 6.32 5.25 7 C6.15881128 9.42349676 6.05072184 11.43009348 6 14 C-5.85947276 14.93764499 -5.85947276 14.93764499 -8.625 12.6640625 C-8.975625 12.11492187 -9.32625 11.56578125 -9.6875 11 C-11.63190203 7.80558524 -11.63190203 7.80558524 -14.40234375 7.49609375 C-19.42263581 7.26126455 -19.42263581 7.26126455 -23.79296875 9.3671875 C-25.45267478 11.61235618 -25.22050047 13.28049424 -25 16 C-19.49510503 19.14440994 -14.44429061 19.92106828 -8.27734375 20.72851562 C-2.0249742 21.67364126 2.05665232 23.85208941 6.375 28.625 C9.16926793 34.42847956 8.66571046 39.65043366 6.9375 45.75 C3.30349905 51.84574353 -1.11385809 55.21560516 -8 57 C-16.76919392 58.02721491 -26.33956052 58.32724473 -34.07421875 53.625 C-37.26387044 50.9335292 -39.58153773 47.941832 -41 44 C-41.1171875 41.25 -41.1171875 41.25 -41 39 C-38.75165504 38.86473861 -36.50097486 38.76789196 -34.25 38.6875 C-32.99703125 38.62949219 -31.7440625 38.57148437 -30.453125 38.51171875 C-27 39 -27 39 -24.734375 41.45703125 C-24.16203125 42.29621094 -23.5896875 43.13539063 -23 44 C-18.41867001 45.52711 -14.59627695 45.61134011 -10.0625 43.875 C-7.65035044 42.10327727 -7.65035044 42.10327727 -7.6875 38.8125 C-7.8421875 37.4203125 -7.8421875 37.4203125 -8 36 C-13.26706715 34.07422857 -18.55540619 33.13003443 -24.078125 32.3203125 C-30.39534066 31.25940605 -34.45111934 29.05122033 -38.3125 23.9375 C-40.90889516 19.41784917 -41.42484212 16.18307381 -41 11 C-38.68352086 4.25199554 -35.16189846 0.92463384 -29.125 -2.75 C-20.09758782 -6.32540833 -8.19442735 -5.05404801 0 0 Z " fill="#03522F" transform="translate(598,495)"/>
<path d="M0 0 C4.91763888 2.87787902 8.38320576 7.64438449 9.90234375 13.11328125 C9.90234375 14.10328125 9.90234375 15.09328125 9.90234375 16.11328125 C7.63312839 16.24817516 5.36163705 16.3452212 3.08984375 16.42578125 C1.19298828 16.51279297 1.19298828 16.51279297 -0.7421875 16.6015625 C-1.84949219 16.44042969 -2.95679688 16.27929688 -4.09765625 16.11328125 C-5.921875 13.65625 -5.921875 13.65625 -7.09765625 11.11328125 C-9.43732315 9.9434478 -10.93157152 9.94715715 -13.53515625 9.92578125 C-14.31761719 9.91160156 -15.10007812 9.89742188 -15.90625 9.8828125 C-18.38971612 9.97242061 -18.38971612 9.97242061 -21.09765625 12.11328125 C-21.76445993 15.07048753 -21.76445993 15.07048753 -21.09765625 18.11328125 C-16.46246912 21.81060951 -11.19110652 22.09424495 -5.51171875 22.84179688 C0.34257527 23.72516803 5.50020166 25.24756788 9.4609375 29.97265625 C12.05741327 35.55796413 13.20814313 40.2866606 11.171875 46.25390625 C8.53286322 52.07050364 5.27206593 54.837277 -0.34765625 57.86328125 C-8.64284809 60.70194005 -19.85089649 60.71049675 -27.84765625 56.98828125 C-31.89712318 54.53238649 -34.59716368 52.14633377 -37.09765625 48.11328125 C-37.42765625 45.80328125 -37.75765625 43.49328125 -38.09765625 41.11328125 C-33.14765625 41.11328125 -28.19765625 41.11328125 -23.09765625 41.11328125 C-22.43765625 42.76328125 -21.77765625 44.41328125 -21.09765625 46.11328125 C-19.37042897 46.33712507 -17.64069618 46.54168094 -15.91015625 46.73828125 C-14.94722656 46.85429688 -13.98429688 46.9703125 -12.9921875 47.08984375 C-9.80029269 47.11568905 -7.88579902 46.65122477 -5.09765625 45.11328125 C-4.02189747 42.15966952 -4.02189747 42.15966952 -4.09765625 39.11328125 C-6.40740793 36.80352957 -7.3129959 36.70802758 -10.45703125 36.18359375 C-11.76027344 35.94962891 -11.76027344 35.94962891 -13.08984375 35.7109375 C-14.91191235 35.39865662 -16.73482759 35.09127159 -18.55859375 34.7890625 C-25.43257567 33.54201268 -29.63517317 31.84197872 -34.41015625 26.55078125 C-37.59401785 21.95187005 -37.58983149 17.51792256 -37.09765625 12.11328125 C-35.30821721 6.74496413 -31.7978686 3.14332105 -27.09765625 0.11328125 C-18.82050215 -3.28749933 -8.36205715 -3.28565001 0 0 Z " fill="#025230" transform="translate(538.09765625,492.88671875)"/>
<path d="M0 0 C4.95 0 9.9 0 15 0 C15 4.62 15 9.24 15 14 C19.62 14 24.24 14 29 14 C29 17.96 29 21.92 29 26 C24.38 26 19.76 26 15 26 C15.07400065 30.36093469 15.15681516 34.71981611 15.26245117 39.07983398 C15.29569423 40.56279854 15.32372823 42.04588944 15.34643555 43.52905273 C15.37999468 45.66184293 15.43230638 47.79347612 15.48828125 49.92578125 C15.51446533 51.20880127 15.54064941 52.49182129 15.56762695 53.8137207 C15.74110863 56.95493101 15.74110863 56.95493101 17.37695312 58.92382812 C19.69347788 60.45981506 21.44065057 60.29452011 24.1875 60.1875 C25.775625 60.125625 27.36375 60.06375 29 60 C29 64.29 29 68.58 29 73 C25.42687005 74.19104332 22.45446678 74.20528823 18.6875 74.25 C17.39199219 74.27578125 16.09648438 74.3015625 14.76171875 74.328125 C9.50186038 73.86932115 6.26429426 72.3668046 2.6875 68.5 C-0.36051611 63.98442058 -0.1317912 59.86350327 -0.09765625 54.61328125 C-0.0962413 53.79627243 -0.09482635 52.97926361 -0.09336853 52.13749695 C-0.08777294 49.52912732 -0.07522129 46.92084366 -0.0625 44.3125 C-0.05748443 42.54362103 -0.05292162 40.77474072 -0.04882812 39.00585938 C-0.03780496 34.67053981 -0.02054338 30.33528448 0 26 C-2.97 26 -5.94 26 -9 26 C-9 22.04 -9 18.08 -9 14 C-6.03 14 -3.06 14 0 14 C0 9.38 0 4.76 0 0 Z " fill="#015834" transform="translate(599,375)"/>
<path d="M0 0 C4.95 0 9.9 0 15 0 C15 4.62 15 9.24 15 14 C19.62 14 24.24 14 29 14 C29 17.96 29 21.92 29 26 C24.38 26 19.76 26 15 26 C15.05110523 30.20085009 15.11408736 34.39802469 15.20751953 38.59765625 C15.23569611 40.02526937 15.25692727 41.45303753 15.27099609 42.88085938 C15.29247392 44.93700332 15.33913974 46.99129002 15.390625 49.046875 C15.41157227 50.28276367 15.43251953 51.51865234 15.45410156 52.79199219 C16.09087398 56.53402686 17.00401292 57.74191344 20 60 C23.09827729 60.51295982 25.83488921 60.18618299 29 60 C29 64.29 29 68.58 29 73 C20.75282818 74.37452864 13.09114308 75.55970784 5.58984375 71.203125 C1.69154037 68.25305758 0.71753957 64.62675574 0 60 C-0.08160753 57.34836945 -0.11671195 54.72474527 -0.09765625 52.07421875 C-0.0962413 51.32662796 -0.09482635 50.57903717 -0.09336853 49.80879211 C-0.08779764 47.43498635 -0.0752506 45.06127697 -0.0625 42.6875 C-0.05748123 41.07226699 -0.05291899 39.4570325 -0.04882812 37.84179688 C-0.03783775 33.89449445 -0.02059332 29.94726353 0 26 C-2.97 26 -5.94 26 -9 26 C-9 22.04 -9 18.08 -9 14 C-6.03 14 -3.06 14 0 14 C0 9.38 0 4.76 0 0 Z " fill="#005B36" transform="translate(799,478)"/>
<path d="M0 0 C0 4.95 0 9.9 0 15 C-1.69125 15.103125 -3.3825 15.20625 -5.125 15.3125 C-9.70053297 15.75358608 -13.23279444 16.17459583 -17 19 C-19.65372117 24.08048197 -20.45990007 28.38302245 -20.51171875 34.12109375 C-20.52966995 34.86585464 -20.54762115 35.61061554 -20.56611633 36.37794495 C-20.6198231 38.73107423 -20.65398543 41.08400544 -20.6875 43.4375 C-20.72070829 45.04364713 -20.75520115 46.64976824 -20.79101562 48.25585938 C-20.87791993 52.17059511 -20.93832125 56.08446256 -21 60 C-25.95 60 -30.9 60 -36 60 C-36 40.53 -36 21.06 -36 1 C-31.05 1 -26.1 1 -21 1 C-20.67 3.31 -20.34 5.62 -20 8 C-19.54109375 7.59007812 -19.0821875 7.18015625 -18.609375 6.7578125 C-17.99578125 6.21898437 -17.3821875 5.68015625 -16.75 5.125 C-16.14671875 4.59132813 -15.5434375 4.05765625 -14.921875 3.5078125 C-9.91846416 -0.41762771 -6.20375638 -0.18246342 0 0 Z " fill="#01512F" transform="translate(556,388)"/>
<path d="M0 0 C0.66 0.33 1.32 0.66 2 1 C2 5.62 2 10.24 2 15 C0.30875 15.103125 -1.3825 15.20625 -3.125 15.3125 C-7.70053297 15.75358608 -11.23279444 16.17459583 -15 19 C-17.65372117 24.08048197 -18.45990007 28.38302245 -18.51171875 34.12109375 C-18.52966995 34.86585464 -18.54762115 35.61061554 -18.56611633 36.37794495 C-18.6198231 38.73107423 -18.65398543 41.08400544 -18.6875 43.4375 C-18.72070829 45.04364713 -18.75520115 46.64976824 -18.79101562 48.25585938 C-18.87791993 52.17059511 -18.93832125 56.08446256 -19 60 C-23.95 60 -28.9 60 -34 60 C-34 40.53 -34 21.06 -34 1 C-29.05 1 -24.1 1 -19 1 C-19 3.97 -19 6.94 -19 10 C-18.690625 9.278125 -18.38125 8.55625 -18.0625 7.8125 C-13.69627289 1.85855395 -7.34551462 -0.89945077 0 0 Z " fill="#015835" transform="translate(695,594)"/>
<path d="M0 0 C4.62 0 9.24 0 14 0 C14.33 2.97 14.66 5.94 15 9 C15.9075 7.88625 16.815 6.7725 17.75 5.625 C19.94544665 2.93058821 21.70286495 1.19461415 25 0 C28.68710253 -0.25747923 32.29816872 -0.08813884 36 0 C36 4.62 36 9.24 36 14 C34.30875 14.103125 32.6175 14.20625 30.875 14.3125 C26.30088772 14.74756981 22.80485831 15.24147773 19 18 C16.06660921 22.69219071 15.53536034 26.82976196 15.48828125 32.2421875 C15.47033005 33.01055939 15.45237885 33.77893127 15.43388367 34.57058716 C15.38005042 37.00533695 15.34597308 39.4398938 15.3125 41.875 C15.27930295 43.53388086 15.24481109 45.19273635 15.20898438 46.8515625 C15.12192007 50.90106525 15.06162558 54.94971201 15 59 C10.05 59 5.1 59 0 59 C0 39.53 0 20.06 0 0 Z " fill="#00522F" transform="translate(746,492)"/>
<path d="M0 0 C4.95 0 9.9 0 15 0 C15 19.8 15 39.6 15 60 C10.05 60 5.1 60 0 60 C0 40.2 0 20.4 0 0 Z " fill="#005C38" transform="translate(566,388)"/>
<path d="M0 0 C4.95 0 9.9 0 15 0 C15 19.47 15 38.94 15 59 C10.05 59 5.1 59 0 59 C0 39.53 0 20.06 0 0 Z " fill="#00502E" transform="translate(440,595)"/>
<path d="M0 0 C5.00527742 2.45541911 6.91323858 4.90902171 9 10 C9.74848767 16.25088356 10.32343664 23.48882882 7.375 29.25 C3.9780457 33.1833155 1.12221584 34.69051019 -4 35.4375 C-7.91297674 34.86685756 -9.9582994 33.50095383 -13 31 C-17.07166373 25.38391209 -17.60098902 19.76669121 -17 13 C-16.07758375 8.62243136 -14.54940319 5.13988429 -11.3125 2 C-7.27222053 -0.43941402 -4.59616964 -0.98161707 0 0 Z " fill="#F7F9F7" transform="translate(647,504)"/>
<path d="M0 0 C3.59052169 2.69828784 5.59083773 5.7725132 7 10 C7.14703064 12.43448818 7.22105339 14.8737477 7.25 17.3125 C7.27578125 18.60800781 7.3015625 19.90351562 7.328125 21.23828125 C6.88259801 26.34593 5.26824072 29.58255449 1.875 33.375 C-2.13005839 35.63872865 -5.50239893 35.93223004 -10 35 C-14.23057905 31.96501937 -16.80327961 28.06304781 -18 23 C-18.82213297 15.72111542 -18.6582425 8.96657605 -14 3 C-9.78501089 -0.84729857 -5.47980577 -1.234035 0 0 Z " fill="#F9FAF9" transform="translate(713,504)"/>
<path d="M0 0 C3.45172016 2.82609588 5.59235663 5.77706989 7 10 C7.95027159 23.68756579 7.95027159 23.68756579 4 29 C1.78218615 31.47873312 0.19297407 32.78389749 -3.11328125 33.3828125 C-7.14367127 33.58602544 -9.67328347 33.15125765 -13.375 31.4375 C-18.15216443 27.0015616 -19.16672086 22.86903341 -19.4375 16.5625 C-19.21949089 9.66203764 -17.29514994 5.18839878 -12.3125 0.4375 C-7.88969424 -1.4818308 -4.54723705 -1.69709383 0 0 Z " fill="#F9FAF9" transform="translate(564,608)"/>
<path d="M0 0 C0.82704941 0.00202423 1.65409882 0.00404846 2.50621033 0.00613403 C3.37281784 0.00438171 4.23942535 0.00262939 5.1322937 0.00082397 C8.01150993 -0.00359568 10.89066529 -0.00065615 13.7698822 0.00271606 C15.76145947 0.00204306 17.75303666 0.00107306 19.74461365 -0.00018311 C23.92443115 -0.00166023 28.10422733 0.00049495 32.28404236 0.00515747 C37.65465747 0.01085476 43.0252226 0.00757584 48.39583588 0.00158501 C52.51005941 -0.00202021 56.62427099 -0.0008822 60.73849487 0.0017128 C62.71934007 0.00238218 64.70018633 0.00155326 66.68103027 -0.00076675 C69.44440096 -0.00329263 72.20768954 0.00054639 74.97105408 0.00613403 C75.79810349 0.0041098 76.62515289 0.00208557 77.4772644 0 C83.12436976 0.02126612 83.12436976 0.02126612 84.2386322 1.13552856 C84.3636322 4.13552856 84.3636322 4.13552856 84.2386322 7.13552856 C82.43236181 8.94179895 79.95712781 8.26828256 77.55183411 8.28216553 C76.73570648 8.28171234 75.91957886 8.28125916 75.07872009 8.28079224 C74.22347244 8.28415085 73.36822479 8.28750946 72.48706055 8.29096985 C69.64512195 8.30050954 66.80324208 8.30242446 63.96128845 8.30349731 C61.99452693 8.30670777 60.02776565 8.31007168 58.06100464 8.31358337 C53.93246405 8.31958219 49.80394442 8.3214225 45.67539978 8.3208313 C40.3743475 8.32072963 35.07342902 8.33438365 29.77240849 8.35160351 C25.70875425 8.36269939 21.64513261 8.36475125 17.58146477 8.36422157 C15.62656124 8.36540527 13.67165697 8.3698487 11.71676826 8.37755394 C8.98706201 8.38730543 6.25764941 8.38449509 3.52793884 8.37844849 C2.30678375 8.38687775 2.30678375 8.38687775 1.06095886 8.39547729 C-4.5330524 8.36384396 -4.5330524 8.36384396 -6.7613678 6.13552856 C-6.9488678 3.57302856 -6.9488678 3.57302856 -6.7613678 1.13552856 C-4.94139874 -0.68444049 -2.42247136 0.00912265 0 0 Z " fill="#FBFBFA" transform="translate(191.76136779785156,570.8644714355469)"/>
<path d="M0 0 C3.5924373 2.14017541 5.52503926 4.12259228 7 8 C7.24422617 10.67512852 7.37009454 13.20152389 7.375 15.875 C7.39949219 16.56980469 7.42398438 17.26460938 7.44921875 17.98046875 C7.47844632 23.1537494 6.25974483 26.03496493 3 30 C-0.397468 32.39367064 -2.97036439 33.25431351 -7.0625 33 C-11.29417027 32.25561441 -13.36061349 30.41567666 -16 27 C-18.77176594 21.15391621 -19.15953499 14.82959936 -17.27734375 8.61328125 C-15.83987928 5.46482668 -14.3738395 3.34179611 -11.8125 1 C-7.80486555 -0.42493669 -4.20180347 -0.69394576 0 0 Z " fill="#F9FAF9" transform="translate(730,401)"/>
<path d="M0 0 C3.12981912 0.33533776 4.00061159 1.00066401 6.1875 3.375 C8.64436065 6.93321198 9.1251972 9.4952949 9.13142776 13.71242332 C9.13526891 14.68718034 9.13911005 15.66193736 9.1430676 16.66623247 C9.14220112 17.73965792 9.14133463 18.81308337 9.14044189 19.91903687 C9.14341302 21.05738342 9.14638414 22.19572997 9.1494453 23.36857188 C9.15815373 27.20324146 9.15964235 31.0378799 9.16113281 34.87255859 C9.1652205 37.61362391 9.17076307 40.35468593 9.17617798 43.0957489 C9.18976447 50.55641121 9.19578636 58.01706814 9.20018864 65.47774076 C9.20295022 70.13473468 9.20718739 74.79172651 9.21169281 79.44871902 C9.22388532 92.33867195 9.23418504 105.22862321 9.2375679 118.11858177 C9.23778747 118.94368214 9.23800703 119.7687825 9.23823325 120.61888591 C9.23845153 121.4459748 9.23866981 122.2730637 9.2388947 123.12521589 C9.23933817 124.8012507 9.23978473 126.47728551 9.24023438 128.15332031 C9.24056652 129.40038051 9.24056652 129.40038051 9.24090537 130.67263384 C9.24485471 144.14856466 9.26231294 157.62444144 9.2855939 171.10035138 C9.30929467 184.93069443 9.32176915 198.76101035 9.32293582 212.59137404 C9.32385324 220.3587403 9.32962241 228.12603614 9.34775543 235.89338303 C9.36313916 242.50641607 9.3682871 249.11935693 9.36001733 255.73240446 C9.35610476 259.10725031 9.35869443 262.48175913 9.37107468 265.85660744 C9.38370588 269.51356515 9.37796517 273.1700421 9.36749268 276.82699585 C9.37554908 277.89595986 9.38360548 278.96492387 9.39190602 280.06628072 C9.33226618 288.93529277 9.33226618 288.93529277 6 293 C5.67 292.34 5.34 291.68 5 291 C5.33 290.34 5.66 289.68 6 289 C6.09518804 287.45506421 6.12735808 285.90605066 6.12863445 284.35818577 C6.13347112 282.88151144 6.13347112 282.88151144 6.1384055 281.3750053 C6.1368569 280.28562993 6.1353083 279.19625455 6.13371277 278.0738678 C6.13597833 276.92271388 6.13824388 275.77155996 6.14057809 274.58552259 C6.14583037 271.38057862 6.14656007 268.17566973 6.14538372 264.97072279 C6.14518023 261.51803979 6.15069343 258.06536525 6.15544128 254.61268616 C6.16375965 247.8447703 6.16649666 241.07686316 6.16705366 234.30894262 C6.16752824 228.8098722 6.16958008 223.31080466 6.17275429 217.81173515 C6.18156393 202.23356397 6.18617315 186.65539968 6.18542381 171.07722599 C6.18538386 170.23681221 6.1853439 169.39639844 6.18530273 168.53051758 C6.18524141 167.26836443 6.18524141 167.26836443 6.18517885 165.98071324 C6.18477225 152.33848441 6.19434466 138.69628316 6.2084411 125.05406231 C6.22278869 111.05877896 6.22971219 97.06350907 6.22884732 83.06821817 C6.2285148 75.20590357 6.23128591 67.34361789 6.24202538 59.48130989 C6.25110912 52.78805928 6.25332319 46.0948507 6.24651595 39.40159661 C6.24324 35.98455701 6.24323255 32.56759814 6.2518692 29.1505661 C6.25952604 25.45134269 6.25498635 21.75233425 6.24723816 18.05311584 C6.2549535 16.42239886 6.2549535 16.42239886 6.26282471 14.7587381 C6.25592652 13.27815215 6.25592652 13.27815215 6.24888897 11.76765537 C6.24910634 10.91322961 6.24932371 10.05880386 6.24954766 9.17848641 C6.13432891 6.70705638 6.13432891 6.70705638 4 4 C3.01 3.67 2.02 3.34 1 3 C0.67 2.01 0.34 1.02 0 0 Z " fill="#305C43" transform="translate(310,362)"/>
<path d="M0 0 C2.51625 -0.061875 5.0325 -0.12375 7.625 -0.1875 C8.79603271 -0.22846802 8.79603271 -0.22846802 9.99072266 -0.27026367 C14.70473247 -0.32591268 17.96724962 0.30544457 22 3 C25.33248655 7.47863077 24.60729359 13.70787014 24 19 C22.19196596 22.07365786 21.13960536 23.43019732 18 25 C16.62451844 25.08308638 15.24514204 25.10736016 13.8671875 25.09765625 C13.14128418 25.09515869 12.41538086 25.09266113 11.66748047 25.09008789 C10.74596191 25.08098389 9.82444336 25.07187988 8.875 25.0625 C5.94625 25.041875 3.0175 25.02125 0 25 C0 16.75 0 8.5 0 0 Z " fill="#FAFBFA" transform="translate(395,485)"/>
<path d="M0 0 C6 1 6 1 8.4375 3.3125 C10 6 10 6 9.75 8.3125 C9.5025 8.869375 9.255 9.42625 9 10 C8.5875 9.05125 8.175 8.1025 7.75 7.125 C6.1697355 3.61663189 6.1697355 3.61663189 2 2 C2.33 84.83 2.66 167.66 3 253 C5.97 251.02 5.97 251.02 9 249 C7.63016497 252.16115776 7.0109362 252.9927092 4 255 C2.68 255 1.36 255 0 255 C0 170.85 0 86.7 0 0 Z " fill="#14522E" transform="translate(327,383)"/>
<path d="M0 0 C7.92 0 15.84 0 24 0 C24 9 24 9 23 17 C16.07 17 9.14 17 2 17 C0 7 0 7 0 0 Z " fill="#03512F" transform="translate(206,474)"/>
<path d="M0 0 C0.83265381 0.04713135 1.66530762 0.0942627 2.52319336 0.14282227 C3.871875 0.21533203 3.871875 0.21533203 5.24780273 0.28930664 C6.19333008 0.34538086 7.13885742 0.40145508 8.11303711 0.45922852 C9.53712891 0.53753906 9.53712891 0.53753906 10.98999023 0.61743164 C13.34376792 0.74753995 15.69719044 0.88404397 18.05053711 1.02172852 C18.05053711 6.63172852 18.05053711 12.24172852 18.05053711 18.02172852 C10.46053711 18.02172852 2.87053711 18.02172852 -4.94946289 18.02172852 C-4.94946289 13.35065326 -4.93417174 10.02217197 -4.01196289 5.64672852 C-3.83793945 4.79336914 -3.66391602 3.94000977 -3.48461914 3.06079102 C-2.68917464 0.02997327 -2.68917464 0.02997327 0 0 Z " fill="#005834" transform="translate(210.949462890625,448.978271484375)"/>
<path d="M0 0 C6.6 0 13.2 0 20 0 C21.43499841 6.45749282 22 11.2047825 22 18 C14.74 18 7.48 18 0 18 C0 12.06 0 6.12 0 0 Z " fill="#015D39" transform="translate(235,449)"/>
<path d="M0 0 C7.26 0 14.52 0 22 0 C21.34 5.94 20.68 11.88 20 18 C13.73 17.67 7.46 17.34 1 17 C0.67 11.39 0.34 5.78 0 0 Z " fill="#01502E" transform="translate(235,474)"/>
<path d="M0 0 C4.95 0 9.9 0 15 0 C14.34 5.94 13.68 11.88 13 18 C7.39 18 1.78 18 -4 18 C-3.53856207 11.35529381 -2.60822848 6.12366686 0 0 Z " fill="#034E2D" transform="translate(187,449)"/>
<path d="M0 0 C5.61 0 11.22 0 17 0 C17.66 5.94 18.32 11.88 19 18 C14.05 18 9.1 18 4 18 C1.76622569 11.88140082 0.51522351 6.49181623 0 0 Z " fill="#035230" transform="translate(183,474)"/>
<path d="M0 0 C0.8515625 2.00390625 0.8515625 2.00390625 1.625 4.5625 C2.01558594 5.80193359 2.01558594 5.80193359 2.4140625 7.06640625 C3 10 3 10 3 18 C-2.28 18 -7.56 18 -13 18 C-13.66 12.06 -14.32 6.12 -15 0 C-12.89625 -0.185625 -10.7925 -0.37125 -8.625 -0.5625 C-7.44164062 -0.66691406 -6.25828125 -0.77132813 -5.0390625 -0.87890625 C-2 -1 -2 -1 0 0 Z " fill="#034F2D" transform="translate(276,449)"/>
<path d="M0 0 C5.94 0 11.88 0 18 0 C18 7.59 18 15.18 18 23 C8.84264635 19.33705854 5.2542393 13.28884784 1.06640625 4.57421875 C0 2 0 2 0 0 Z " fill="#015C37" transform="translate(211,498)"/>
<path d="M0 0 C0 7.59 0 15.18 0 23 C-5.94 23 -11.88 23 -18 23 C-16.49884542 15.49422709 -9.22299339 0 0 0 Z " fill="#015C37" transform="translate(229,420)"/>
<path d="M0 0 C5.61 0 11.22 0 17 0 C14.25 13.5 14.25 13.5 12 18 C7.38 18 2.76 18 -2 18 C-1.34 12.06 -0.68 6.12 0 0 Z " fill="#024D2C" transform="translate(263,474)"/>
<path d="M0 0 C5.77932486 2.88966243 9.27066157 5.89270194 12.6875 11.375 C13.26886719 12.29023438 13.85023438 13.20546875 14.44921875 14.1484375 C16 17 16 17 18 23 C12.06 23 6.12 23 0 23 C0 15.41 0 7.82 0 0 Z " fill="#045634" transform="translate(235,420)"/>
<path d="M0 0 C-0.33537259 6.48386998 -1.32648042 9.43775469 -6 14 C-10.60676519 15.5355884 -15.02826081 15.83798916 -19.5 13.9375 C-21 12 -21 12 -21.625 8.5625 C-21 5 -21 5 -18.4375 2.625 C-12.40097731 -0.22862891 -6.53693084 -0.114683 0 0 Z " fill="#F5F8F6" transform="translate(477,525)"/>
<path d="M0 0 C2.95115708 2.58226244 3.84210667 4.15790225 4.5625 8 C3.77376734 12.20657416 2.50811779 13.56579582 -1 16 C-4.08450043 16.57260428 -6.93205069 16.68942681 -10 16 C-12.89757486 13.82186856 -13.03511784 12.85484625 -13.9375 9.125 C-14.26018747 5.7553981 -14.06833087 5.11074313 -12.1875 2.0625 C-8.33066357 -1.57394577 -4.9684688 -1.4237707 0 0 Z " fill="#075130" transform="translate(578,365)"/>
<path d="M0 0 C4.45013706 4.07140199 4.97645157 5.85870939 6 12 C-1.92 12 -9.84 12 -18 12 C-16.8 4.8 -16.8 4.8 -13 1 C-8.87070627 -1.52345728 -4.52766389 -1.56410207 0 0 Z " fill="#F6F9F7" transform="translate(630,606)"/>
<path d="M0 0 C3 1.5 3 1.5 5 4 C5.79867423 7.74762522 5.43023654 10.881385 4.0625 14.4375 C0.69169697 16.99113866 -2.8352061 17.40845614 -7 17 C-10.0625 15.0625 -10.0625 15.0625 -12 12 C-12.86493339 8.09235452 -12.59773583 4.99622638 -10.5 1.5 C-7.00882209 -0.59470675 -3.90902027 -0.74310088 0 0 Z " fill="#04502E" transform="translate(451,571)"/>
<path d="M0 0 C5.28 0 10.56 0 16 0 C14.3231974 10.06081563 9.24747495 17.05551925 1 23 C0.67 23 0.34 23 0 23 C0 15.41 0 7.82 0 0 Z " fill="#025734" transform="translate(236,498)"/>
<path d="M0 0 C1.27230469 0.00902344 2.54460938 0.01804687 3.85546875 0.02734375 C5.31919922 0.04474609 5.31919922 0.04474609 6.8125 0.0625 C6.44553189 7.2795395 6.44553189 7.2795395 3.4375 11 C-0.80421499 14.33277606 -4.93824621 14.63284146 -10.1875 14.0625 C-12.6875 12.9375 -12.6875 12.9375 -14.1875 11.0625 C-14.6875 8.125 -14.6875 8.125 -14.1875 5.0625 C-10.13556949 -0.10720444 -6.26398105 -0.05746772 0 0 Z " fill="#F7F9F8" transform="translate(665.1875,422.9375)"/>
<path d="M0 0 C5.10702647 3.5110807 5.19641384 5.68744844 7 12 C-1.25 12 -9.5 12 -18 12 C-16.8565811 6.28290548 -15.80917917 5.0878996 -12 1 C-8.27295938 -0.86352031 -4.05879065 -0.55608628 0 0 Z " fill="#F8FAF9" transform="translate(488,400)"/>
<path d="M0 0 C3.56653863 0.0459211 5.93684416 0.26113516 8.8125 2.4375 C11.3125 5.375 11.3125 5.375 13.3125 12.375 C5.0625 12.375 -3.1875 12.375 -11.6875 12.375 C-10.64825082 6.13950491 -10.13809307 5.26926894 -5.6875 1.375 C-4.05531064 -0.25718936 -2.24806873 0.08736889 0 0 Z " fill="#F9FAF9" transform="translate(789.6875,399.625)"/>
<path d="M0 0 C4.95 0 9.9 0 15 0 C15 19.8 15 39.6 15 60 C10.05 60 5.1 60 0 60 C0 40.2 0 20.4 0 0 Z M1 2 C1 20.81 1 39.62 1 59 C4.96 59 8.92 59 13 59 C13 40.19 13 21.38 13 2 C9.04 2 5.08 2 1 2 Z " fill="#052F12" transform="translate(566,388)"/>
<path d="M0 0 C4.95 0 9.9 0 15 0 C14.67 3.3 14.34 6.6 14 10 C13.67 10 13.34 10 13 10 C13 7.03 13 4.06 13 1 C9.37 1 5.74 1 2 1 C2 19.48 2 37.96 2 57 C5.96 57 9.92 57 14 57 C13.98952637 55.9805127 13.97905273 54.96102539 13.96826172 53.91064453 C13.93211273 50.13496398 13.90911823 46.35929879 13.89013672 42.58349609 C13.88006746 40.94805328 13.86641119 39.31262851 13.84912109 37.67724609 C13.82491295 35.3290563 13.81352643 32.98110412 13.8046875 30.6328125 C13.79436493 29.89942657 13.78404236 29.16604065 13.77340698 28.41043091 C13.77300632 26.60537303 13.87787245 24.8009217 14 23 C14.66 22.34 15.32 21.68 16 21 C15.67 33.54 15.34 46.08 15 59 C10.05 59 5.1 59 0 59 C0 39.53 0 20.06 0 0 Z " fill="#00310E" transform="translate(661,595)"/>
<path d="M0 0 C4.62 0 9.24 0 14 0 C14 2.31 14 4.62 14 7 C13.67 7 13.34 7 13 7 C13 5.02 13 3.04 13 1 C9.04 1 5.08 1 1 1 C1 19.48 1 37.96 1 57 C4.96 57 8.92 57 13 57 C12.98952637 56.00145996 12.97905273 55.00291992 12.96826172 53.97412109 C12.93191542 50.2505251 12.90904654 46.52694464 12.89013672 42.80322266 C12.88011237 41.19512287 12.86648934 39.58704115 12.84912109 37.97900391 C12.82471512 35.66043624 12.81348114 33.34211071 12.8046875 31.0234375 C12.79436493 30.31069672 12.78404236 29.59795593 12.77340698 28.86361694 C12.7724435 24.52490917 13.40562067 21.03284183 15 17 C16.32339119 20.97017357 16.01212931 24.69673557 15.87890625 28.82421875 C15.85529526 29.68561966 15.83168427 30.54702057 15.80735779 31.43452454 C15.7307872 34.18568675 15.6467344 36.9365628 15.5625 39.6875 C15.5092727 41.55272037 15.45653235 43.41795471 15.40429688 45.28320312 C15.27518096 49.85564996 15.13935423 54.42785421 15 59 C10.05 59 5.1 59 0 59 C0 39.53 0 20.06 0 0 Z " fill="#0C3116" transform="translate(468,595)"/>
<path d="M0 0 C4.29 0 8.58 0 13 0 C14.20442708 2.96223958 15.40885417 5.92447917 16.61328125 8.88671875 C17.92618963 12.00562407 17.92618963 12.00562407 19.66796875 14.76953125 C21 17 21 17 21 19 C12.10458362 16.56573758 5.35471229 9.3181068 0 2 C0 1.34 0 0.68 0 0 Z " fill="#0D2E15" transform="translate(191,498)"/>
<path d="M0 0 C0.33 0 0.66 0 1 0 C1 25.08 1 50.16 1 76 C4.3 76 7.6 76 11 76 C11 67.75 11 59.5 11 51 C11.99 51 12.98 51 14 51 C14 60.24 14 69.48 14 79 C9.38 79 4.76 79 0 79 C0 52.93 0 26.86 0 0 Z " fill="#0F6643" transform="translate(617,494)"/>
<path d="M0 0 C4.95 0 9.9 0 15 0 C15 4.62 15 9.24 15 14 C14.67 14 14.34 14 14 14 C14 9.71 14 5.42 14 1 C9.71 1 5.42 1 1 1 C1 5.62 1 10.24 1 15 C-1.64 15 -4.28 15 -7 15 C-7 17.97 -7 20.94 -7 24 C-5.88625 23.95875 -4.7725 23.9175 -3.625 23.875 C0 24 0 24 2 26 C2.17532289 28.86888581 2.23137614 31.63992645 2.1953125 34.5078125 C2.1924826 35.34843231 2.18965271 36.18905212 2.18673706 37.05514526 C2.1755243 39.74524046 2.15041803 42.4350051 2.125 45.125 C2.1149716 46.94660978 2.10584551 48.76822477 2.09765625 50.58984375 C2.07558142 55.06002358 2.04104434 59.52995571 2 64 C-0.45777197 60.24105464 -0.25710815 56.50046454 -0.1953125 52.171875 C-0.1924826 51.42286926 -0.18965271 50.67386353 -0.18673706 49.90216064 C-0.1755726 47.51794224 -0.15047531 45.13410421 -0.125 42.75 C-0.11496535 41.13021377 -0.10584035 39.51042164 -0.09765625 37.890625 C-0.07564555 33.92693754 -0.04114175 29.96353319 0 26 C-2.97 26 -5.94 26 -9 26 C-9 22.04 -9 18.08 -9 14 C-6.03 14 -3.06 14 0 14 C0 9.38 0 4.76 0 0 Z " fill="#002E0D" transform="translate(799,478)"/>
<path d="M0 0 C0.66 0.33 1.32 0.66 2 1 C1.60167969 1.71285156 1.20335937 2.42570312 0.79296875 3.16015625 C-2.08121637 8.35606755 -4.79421218 13.48553046 -7 19 C-11.29 19 -15.58 19 -20 19 C-15.32422453 11.20704088 -8.50164728 3.65211609 0 0 Z " fill="#034A28" transform="translate(211,423)"/>
<path d="M0 0 C9.20783408 3.33804143 16.03353239 10.42404931 22 18 C22 18.33 22 18.66 22 19 C17.71 19 13.42 19 9 19 C8.40251953 17.57107422 8.40251953 17.57107422 7.79296875 16.11328125 C7.25800895 14.8462712 6.72284168 13.57934874 6.1875 12.3125 C5.79594727 11.37374023 5.79594727 11.37374023 5.39648438 10.41601562 C3.84464169 6.75673225 2.13479768 3.3528504 0 0 Z " fill="#02502D" transform="translate(250,423)"/>
<path d="M0 0 C0.83265381 0.04713135 1.66530762 0.0942627 2.52319336 0.14282227 C3.871875 0.21533203 3.871875 0.21533203 5.24780273 0.28930664 C6.19333008 0.34538086 7.13885742 0.40145508 8.11303711 0.45922852 C9.53712891 0.53753906 9.53712891 0.53753906 10.98999023 0.61743164 C13.34376792 0.74753995 15.69719044 0.88404397 18.05053711 1.02172852 C18.05053711 6.63172852 18.05053711 12.24172852 18.05053711 18.02172852 C10.46053711 18.02172852 2.87053711 18.02172852 -4.94946289 18.02172852 C-4.94946289 15.71172852 -4.94946289 13.40172852 -4.94946289 11.02172852 C-4.28946289 12.34172852 -3.62946289 13.66172852 -2.94946289 15.02172852 C2.99053711 15.35172852 8.93053711 15.68172852 15.05053711 16.02172852 C15.05053711 11.73172852 15.05053711 7.44172852 15.05053711 3.02172852 C10.10053711 3.35172852 5.15053711 3.68172852 0.05053711 4.02172852 C-0.27946289 5.67172852 -0.60946289 7.32172852 -0.94946289 9.02172852 C-1.27946289 9.02172852 -1.60946289 9.02172852 -1.94946289 9.02172852 C-2.82836914 2.86938477 -2.82836914 2.86938477 -2.94946289 1.02172852 C-1.94946289 0.02172852 -1.94946289 0.02172852 0 0 Z " fill="#084425" transform="translate(210.949462890625,448.978271484375)"/>
<path d="M0 0 C3.96 0 7.92 0 12 0 C7.67378531 8.65242937 1.02127102 13.83539894 -7 19 C-7.66 18.67 -8.32 18.34 -9 18 C-8.68546875 17.53851562 -8.3709375 17.07703125 -8.046875 16.6015625 C-4.55942909 11.28635879 -2.23169601 5.95118935 0 0 Z " fill="#064C2B" transform="translate(259,499)"/>
<path d="M0 0 C4.62 0 9.24 0 14 0 C14 3.96 14 7.92 14 12 C9.38 12 4.76 12 0 12 C0.05110523 16.20085009 0.11408736 20.39802469 0.20751953 24.59765625 C0.23569611 26.02526937 0.25692727 27.45303753 0.27099609 28.88085938 C0.29247392 30.93700332 0.33913974 32.99129002 0.390625 35.046875 C0.41157227 36.28276367 0.43251953 37.51865234 0.45410156 38.79199219 C1.09087398 42.53402686 2.00401292 43.74191344 5 46 C8.09827729 46.51295982 10.83488921 46.18618299 14 46 C14 50.29 14 54.58 14 59 C7.565 59.495 7.565 59.495 1 60 C4.90432869 58.04783565 7.72213252 57.49360009 12 57 C12.33 53.7 12.66 50.4 13 47 C12.01 47.495 12.01 47.495 11 48 C6.75523201 48.48053977 4.75430962 48.57532321 1.30224609 45.94238281 C-1.6149839 42.21402057 -1.59451836 40.23821164 -1.5234375 35.546875 C-1.51873444 34.84604797 -1.51403137 34.14522095 -1.50918579 33.42315674 C-1.48793144 31.19774816 -1.43134149 28.97476668 -1.375 26.75 C-1.35848411 25.23960572 -1.3441383 23.72918605 -1.33203125 22.21875 C-1.19607622 11.19607622 -1.19607622 11.19607622 0 10 C2.01964199 9.92755947 4.04167124 9.91622812 6.0625 9.9375 C7.71958984 9.95103516 7.71958984 9.95103516 9.41015625 9.96484375 C10.26480469 9.97644531 11.11945312 9.98804688 12 10 C12 7.03 12 4.06 12 1 C8.04 1 4.08 1 0 1 C0 0.67 0 0.34 0 0 Z " fill="#042409" transform="translate(814,492)"/>
<path d="M0 0 C6.6 0 13.2 0 20 0 C21.07396066 4.29584263 21.07329796 7.60212211 21 12 C20.67 12 20.34 12 20 12 C19.505 7.05 19.505 7.05 19 2 C13.39 2 7.78 2 2 2 C2 6.95 2 11.9 2 17 C8.27 17 14.54 17 21 17 C21.33 15.68 21.66 14.36 22 13 C22 14.65 22 16.3 22 18 C14.74 18 7.48 18 0 18 C0 12.06 0 6.12 0 0 Z " fill="#1E422A" transform="translate(235,449)"/>
<path d="M0 0 C0 7.59 0 15.18 0 23 C-5.94 23 -11.88 23 -18 23 C-17.15071984 18.75359922 -16.67656891 17.07480937 -14.4375 13.6875 C-13.98246094 12.99011719 -13.52742187 12.29273438 -13.05859375 11.57421875 C-12.70925781 11.05472656 -12.35992187 10.53523438 -12 10 C-12 14.38887111 -13.96894323 17.12829803 -16 21 C-9.07 21.495 -9.07 21.495 -2 22 C-2 15.73 -2 9.46 -2 3 C-3.32 3.99 -4.64 4.98 -6 6 C-6.66 5.67 -7.32 5.34 -8 5 C-2.25 0 -2.25 0 0 0 Z " fill="#0A381A" transform="translate(229,420)"/>
<path d="M0 0 C5.94 0 11.88 0 18 0 C18 7.59 18 15.18 18 23 C8.84264635 19.33705854 5.2542393 13.28884784 1.06640625 4.57421875 C0 2 0 2 0 0 Z M2 2 C4.5443271 9.63298129 8.01588825 16.5379286 15 21 C15.66 21 16.32 21 17 21 C17 14.73 17 8.46 17 2 C12.05 2 7.1 2 2 2 Z " fill="#042F11" transform="translate(211,498)"/>
<path d="M0 0 C2.97 0 5.94 0 9 0 C10.98 4.62 12.96 9.24 15 14 C8.22542903 11.29017161 4.33690864 7.69993707 0 2 C0 1.34 0 0.68 0 0 Z " fill="#015B36" transform="translate(194,500)"/>
<path d="M0 0 C2.97 0 5.94 0 9 0 C9 0.33 9 0.66 9 1 C6.69 1 4.38 1 2 1 C2 3.97 2 6.94 2 10 C3.7015625 9.9690625 3.7015625 9.9690625 5.4375 9.9375 C9 10 9 10 10 11 C10.08855161 13.6662603 10.11524673 16.30647114 10.09765625 18.97265625 C10.0962413 19.77029892 10.09482635 20.56794159 10.09336853 21.38975525 C10.08775316 23.94737435 10.07519812 26.50490718 10.0625 29.0625 C10.05748698 30.79231645 10.05292373 32.52213426 10.04882812 34.25195312 C10.03777875 38.50133553 10.02050386 42.75065312 10 47 C9.67 47 9.34 47 9 47 C9 35.45 9 23.9 9 12 C6.03 12 3.06 12 0 12 C0 8.04 0 4.08 0 0 Z " fill="#0E2E17" transform="translate(590,389)"/>
<path d="M0 0 C4.95 0 9.9 0 15 0 C15 4.62 15 9.24 15 14 C19.62 14 24.24 14 29 14 C29 14.33 29 14.66 29 15 C26.52076199 15.02685095 24.0418116 15.04676547 21.5625 15.0625 C20.85544922 15.07087891 20.14839844 15.07925781 19.41992188 15.08789062 C17.61306441 15.09653588 15.80612397 15.05220011 14 15 C13 14 13 14 12.90234375 11.27734375 C12.93489583 8.18489583 12.96744792 5.09244792 13 2 C9.04 2 5.08 2 1 2 C1 5.96 1 9.92 1 14 C0.67 14 0.34 14 0 14 C0 9.38 0 4.76 0 0 Z " fill="#012E0E" transform="translate(599,375)"/>
<path d="M0 0 C0 4.62 0 9.24 0 14 C-3.96 14 -7.92 14 -12 14 C-12 13.67 -12 13.34 -12 13 C-8.7 13 -5.4 13 -2 13 C-2 9.04 -2 5.08 -2 1 C-3.60875 1.0825 -5.2175 1.165 -6.875 1.25 C-7.77992188 1.29640625 -8.68484375 1.3428125 -9.6171875 1.390625 C-12.16152115 1.74496268 -12.16152115 1.74496268 -13.19921875 3.98046875 C-13.46347656 4.64691406 -13.72773437 5.31335938 -14 6 C-15.9375 7.0625 -15.9375 7.0625 -18 8 C-19.70921589 9.5412312 -19.70921589 9.5412312 -21 11 C-19.56314642 5.97101246 -17.05763331 4.04322498 -13 1 C-9.14854957 -0.92572521 -4.19956748 -0.04883218 0 0 Z " fill="#1B3D24" transform="translate(782,492)"/>
<path d="M0 0 C0.33 1.32 0.66 2.64 1 4 C8.92 4 16.84 4 25 4 C25.33 2.68 25.66 1.36 26 0 C26.38218767 1.65614657 26.71395102 3.32457024 27 5 C26 6 26 6 23.49975586 6.11352539 C22.41573486 6.10828857 21.33171387 6.10305176 20.21484375 6.09765625 C19.04501953 6.09443359 17.87519531 6.09121094 16.66992188 6.08789062 C15.43822266 6.07951172 14.20652344 6.07113281 12.9375 6.0625 C11.08415039 6.05573242 11.08415039 6.05573242 9.19335938 6.04882812 C6.12885883 6.03699608 3.06445279 6.02051173 0 6 C-1 3 -1 3 0 0 Z " fill="#194A2B" transform="translate(611,614)"/>
<path d="M0 0 C4.62 0 9.24 0 14 0 C14 3.96 14 7.92 14 12 C9.38 12 4.76 12 0 12 C0 11.34 0 10.68 0 10 C3.96 10 7.92 10 12 10 C12 7.03 12 4.06 12 1 C8.04 1 4.08 1 0 1 C0 0.67 0 0.34 0 0 Z " fill="#033813" transform="translate(814,492)"/>
<path d="M0 0 C1.98 0.99 1.98 0.99 4 2 C3.01 2.495 3.01 2.495 2 3 C2 9.27 2 15.54 2 22 C5.63 22 9.26 22 13 22 C13 22.33 13 22.66 13 23 C8.71 23 4.42 23 0 23 C0 15.41 0 7.82 0 0 Z " fill="#1C4229" transform="translate(235,420)"/>
<path d="M0 0 C5.28 0 10.56 0 16 0 C15.67 1.65 15.34 3.3 15 5 C14.67 4.01 14.34 3.02 14 2 C9.71 2 5.42 2 1 2 C1.33 8.6 1.66 15.2 2 22 C1.34 22.33 0.68 22.66 0 23 C0 15.41 0 7.82 0 0 Z " fill="#042C0F" transform="translate(236,498)"/>
<path d="M0 0 C2.84129901 0.30442489 3.98829525 0.98923644 6.11621094 2.94604492 C8.76249426 7.23613798 8.50488016 10.73430133 8.390625 15.67578125 C8.38496521 16.6009404 8.37930542 17.52609955 8.37347412 18.47929382 C8.3511448 21.42422986 8.30095486 24.36793386 8.25 27.3125 C8.22993054 29.31313343 8.21168055 31.31378599 8.1953125 33.31445312 C8.15129125 38.21010764 8.08228747 43.10484518 8 48 C7.67 48 7.34 48 7 48 C6.98018066 46.77369873 6.96036133 45.54739746 6.93994141 44.28393555 C6.86392381 39.73831492 6.77520053 35.19301601 6.68261719 30.64770508 C6.64431153 28.67967069 6.60946145 26.7115659 6.578125 24.7434082 C6.53250889 21.91592228 6.47450902 19.08892166 6.4140625 16.26171875 C6.40251129 15.38037766 6.39096008 14.49903656 6.37905884 13.59098816 C6.35918915 12.77036392 6.33931946 11.94973969 6.31884766 11.10424805 C6.30552399 10.38254929 6.29220032 9.66085052 6.2784729 8.9172821 C6.09273845 6.67398371 6.09273845 6.67398371 4 4 C3.01 3.67 2.02 3.34 1 3 C0.67 2.01 0.34 1.02 0 0 Z " fill="#001A00" transform="translate(310,362)"/>
<path d="M0 0 C7.57774471 2.70824327 13.55080679 8.19924594 19 14 C18.67 14.66 18.34 15.32 18 16 C17.44570313 15.4225 16.89140625 14.845 16.3203125 14.25 C15.59585937 13.5075 14.87140625 12.765 14.125 12 C13.04605469 10.88625 13.04605469 10.88625 11.9453125 9.75 C10.18829043 7.77706675 10.18829043 7.77706675 8 8 C8 9.65 8 11.3 8 13 C5.81302498 10.20375042 4.00847187 7.36692128 2.3125 4.25 C1.65701172 3.05117188 1.65701172 3.05117188 0.98828125 1.828125 C0.49908203 0.92320312 0.49908203 0.92320312 0 0 Z " fill="#0A3519" transform="translate(250,423)"/>
<path d="M0 0 C4.95 0 9.9 0 15 0 C14.67 9.57 14.34 19.14 14 29 C13.67 29 13.34 29 13 29 C13 20.09 13 11.18 13 2 C9.04 2 5.08 2 1 2 C0.67 1.34 0.34 0.68 0 0 Z " fill="#154120" transform="translate(566,388)"/>
<path d="M0 0 C0.66 0 1.32 0 2 0 C2 3.63 2 7.26 2 11 C-2.62 11 -7.24 11 -12 11 C-12 10.34 -12 9.68 -12 9 C-8.04 9 -4.08 9 0 9 C0 6.03 0 3.06 0 0 Z " fill="#124826" transform="translate(626,390)"/>
<path d="M0 0 C3.37965018 2.61154786 4.32904044 5.93654831 5 10 C5.66894198 18.99658703 5.66894198 18.99658703 3 23 C2.67 17.06 2.34 11.12 2 5 C1.34 5 0.68 5 0 5 C0 3.35 0 1.7 0 0 Z " fill="#144325" transform="translate(431,482)"/>
<path d="M0 0 C4.29 0 8.58 0 13 0 C13 0.66 13 1.32 13 2 C9.7 2 6.4 2 3 2 C4.65 3.98 6.3 5.96 8 8 C7.67 8.66 7.34 9.32 7 10 C5.82739389 8.71372289 4.6620717 7.42080217 3.5 6.125 C2.8503125 5.40570313 2.200625 4.68640625 1.53125 3.9453125 C0 2 0 2 0 0 Z " fill="#194027" transform="translate(191,498)"/>
<path d="M0 0 C1.33037532 1.99556299 2.62268277 4.01704853 3.875 6.0625 C6.00139757 9.00193194 6.70886134 9.82789272 10 11 C12.82962695 11.02751543 12.82962695 11.02751543 15.75 10.625 C16.73484375 10.51414062 17.7196875 10.40328125 18.734375 10.2890625 C19.48203125 10.19367187 20.2296875 10.09828125 21 10 C20.67 10.99 20.34 11.98 20 13 C15.45187668 14.51604111 11.52266876 13.35102086 7 12 C3.54387004 9.83991877 1.3374622 7.89079912 0 4 C0 2.68 0 1.36 0 0 Z " fill="#072F13" transform="translate(630,527)"/>
<path d="M0 0 C7.73708326 -0.12152487 15.307359 0.15199233 23 1 C23 1.33 23 1.66 23 2 C12.11 2.495 12.11 2.495 1 3 C0.67 2.01 0.34 1.02 0 0 Z " fill="#0E6743" transform="translate(286,656)"/>
<path d="M0 0 C0.33 0.66 0.66 1.32 1 2 C0.67 2.99 0.34 3.98 0 5 C-0.26682486 8.1256626 -0.44459148 11.250836 -0.62109375 14.3828125 C-0.74613281 15.24648438 -0.87117187 16.11015625 -1 17 C-1.66 17.33 -2.32 17.66 -3 18 C-4.296508 11.51746002 -3.67771747 7.05800437 -1 1 C-0.67 0.67 -0.34 0.34 0 0 Z " fill="#0F4A2B" transform="translate(533,605)"/>
<path d="M0 0 C2.97 0 5.94 0 9 0 C10.98 4.62 12.96 9.24 15 14 C14.01 13.67 13.02 13.34 12 13 C10.8125 9.4375 10.8125 9.4375 10 6 C9.01 6.33 8.02 6.66 7 7 C7.33 5.02 7.66 3.04 8 1 C5.36 1 2.72 1 0 1 C0 0.67 0 0.34 0 0 Z " fill="#03643D" transform="translate(194,500)"/>
<path d="M0 0 C0.99 0.495 0.99 0.495 2 1 C2 3.64 2 6.28 2 9 C4.31 9 6.62 9 9 9 C9 9.66 9 10.32 9 11 C6.03 11 3.06 11 0 11 C0 7.37 0 3.74 0 0 Z " fill="#08441F" transform="translate(790,493)"/>
<path d="M0 0 C6.76594019 -0.11381955 13.28837062 0.11978631 20 1 C20 1.33 20 1.66 20 2 C13.4 2.33 6.8 2.66 0 3 C0 2.01 0 1.02 0 0 Z " fill="#106743" transform="translate(190,648)"/>
<path d="M0 0 C0.66 0.33 1.32 0.66 2 1 C1.34 1.66 0.68 2.32 0 3 C-2.77804425 6.31606567 -2.77804425 6.31606567 -5 10 C-5.66 10 -6.32 10 -7 10 C-7.33 10.66 -7.66 11.32 -8 12 C-7.92303847 8.76761586 -7.62561345 6.66772205 -5.375 4.265625 C-3.62229929 2.78148327 -1.84920638 1.36155666 0 0 Z " fill="#063E1E" transform="translate(510,494)"/>
<path d="M0 0 C3.625 0.25 3.625 0.25 5.5625 1.75 C5.913125 2.245 6.26375 2.74 6.625 3.25 C3.985 3.58 1.345 3.91 -1.375 4.25 C-1.705 5.9 -2.035 7.55 -2.375 9.25 C-2.705 9.25 -3.035 9.25 -3.375 9.25 C-4.25390625 3.09765625 -4.25390625 3.09765625 -4.375 1.25 C-3.375 0.25 -3.375 0.25 0 0 Z " fill="#125F3C" transform="translate(212.375,448.75)"/>
<path d="M0 0 C0.33 0 0.66 0 1 0 C1 4.62 1 9.24 1 14 C-1.64 14 -4.28 14 -7 14 C-6.360625 13.773125 -5.72125 13.54625 -5.0625 13.3125 C-2.72806339 12.14749104 -2.72806339 12.14749104 -2.25 9.375 C-2.1675 8.59125 -2.085 7.8075 -2 7 C-1.67 7 -1.34 7 -1 7 C-0.67 4.69 -0.34 2.38 0 0 Z " fill="#E5EDE8" transform="translate(598,375)"/>
<path d="M0 0 C0.66 0.33 1.32 0.66 2 1 C0.68 3.31 -0.64 5.62 -2 8 C-2.66 8 -3.32 8 -4 8 C-4.33 9.65 -4.66 11.3 -5 13 C-5.68359375 11.296875 -5.68359375 11.296875 -6 9 C-4.78515625 6.640625 -4.78515625 6.640625 -3.0625 4.25 C-2.49660156 3.45078125 -1.93070313 2.6515625 -1.34765625 1.828125 C-0.90292969 1.22484375 -0.45820312 0.6215625 0 0 Z " fill="#113F25" transform="translate(604,601)"/>
<path d="M0 0 C1.24546405 2.49092811 0.7767578 3.41080733 0 6 C0.66 6.33 1.32 6.66 2 7 C-0.31 8.65 -2.62 10.3 -5 12 C-5.66 11.67 -6.32 11.34 -7 11 C-6.20890398 9.72881136 -5.41709922 8.45806377 -4.625 7.1875 C-4.18414062 6.47980469 -3.74328125 5.77210938 -3.2890625 5.04296875 C-2.21811524 3.34567961 -1.11323761 1.66985642 0 0 Z " fill="#0D2B16" transform="translate(257,506)"/>
<path d="M0 0 C2 3 2 3 2 5 C-2.95 5 -7.9 5 -13 5 C-12.67 4.34 -12.34 3.68 -12 3 C-8.04 3 -4.08 3 0 3 C0 2.01 0 1.02 0 0 Z " fill="#052D12" transform="translate(200,487)"/>
<path d="M0 0 C-1.4006216 3.501554 -2.62264089 4.46483677 -6 6 C-7.70921589 7.5412312 -7.70921589 7.5412312 -9 9 C-7.39537511 4.18612534 -5.52128094 0 0 0 Z " fill="#023C1C" transform="translate(770,494)"/>
<path d="M0 0 C0.66 0.33 1.32 0.66 2 1 C0.35 3.64 -1.3 6.28 -3 9 C-4 7 -4 7 -4 5 C-4.99 5 -5.98 5 -7 5 C-4.69 3.35 -2.38 1.7 0 0 Z " fill="#0E2E17" transform="translate(211,423)"/>
<path d="M0 0 C-0.57344937 2.86724686 -0.8614515 3.8614515 -3 6 C-5.125 5.625 -5.125 5.625 -7 5 C-2.25 0 -2.25 0 0 0 Z " fill="#014020" transform="translate(647,392)"/>
<path d="M0 0 C2.9375 0.25 2.9375 0.25 4.9375 1.25 C4.9375 1.91 4.9375 2.57 4.9375 3.25 C1.3075 3.25 -2.3225 3.25 -6.0625 3.25 C-3.0625 0.25 -3.0625 0.25 0 0 Z " fill="#166442" transform="translate(286.0625,361.75)"/>
<path d="M0 0 C3.25543229 0.34879632 4.01873107 1.02133261 6.25 3.5625 C6.8275 4.366875 7.405 5.17125 8 6 C7.01 6.495 7.01 6.495 6 7 C5.34 6.01 4.68 5.02 4 4 C3.01 3.67 2.02 3.34 1 3 C0.67 2.01 0.34 1.02 0 0 Z " fill="#0C371B" transform="translate(310,362)"/>
</svg>
