<?xml version="1.0" encoding="UTF-8"?>
<svg version="1.1" xmlns="http://www.w3.org/2000/svg" width="1080" height="1080">
<path d="M0 0 C356.4 0 712.8 0 1080 0 C1080 356.4 1080 712.8 1080 1080 C723.6 1080 367.2 1080 0 1080 C0 723.6 0 367.2 0 0 Z " fill="#FEFEFE" transform="translate(0,0)"/>
<path d="M0 0 C1.6387207 -0.04350586 1.6387207 -0.04350586 3.31054688 -0.08789062 C9.45018879 -0.13646965 13.4328451 -0.00853037 18.1875 4.3125 C20.015625 6.20703125 20.015625 6.20703125 21.4375 8.125 C21.91703125 8.75019531 22.3965625 9.37539063 22.890625 10.01953125 C25.98374367 15.48838865 26.48048451 21.15923575 26.44756222 27.31986141 C26.45136789 28.10050507 26.45517356 28.88114873 26.45909455 29.68544826 C26.4693938 32.2989878 26.46550727 34.91230949 26.46165466 37.52586365 C26.46610794 39.41948901 26.47142228 41.31311251 26.47752339 43.20673329 C26.49170247 48.40880968 26.4933667 53.61082631 26.49292648 58.81291926 C26.49457471 64.42378451 26.50764114 70.03462514 26.51911926 75.64547729 C26.54196544 87.91173732 26.54988907 100.17798004 26.55494571 112.44425845 C26.55820236 120.10173281 26.56472453 127.75920214 26.5719471 135.41667366 C26.59151043 156.61492366 26.60799821 177.81316884 26.61082363 199.01142788 C26.61091769 199.68919688 26.61101175 200.36696588 26.61110866 201.06527333 C26.61148714 203.81193142 26.61185114 206.55858951 26.61221164 209.3052476 C26.61248336 211.37252509 26.61276004 213.43980258 26.61303711 215.50708008 C26.61312513 216.1901866 26.61321315 216.87329312 26.61330384 217.57709983 C26.61621017 239.04728997 26.6383162 260.51739013 26.67456055 281.98754883 C26.71528327 306.11116359 26.73896256 330.23470047 26.73928314 354.35835797 C26.73986827 367.13084978 26.74839634 379.90322574 26.77728081 392.67568779 C26.80175554 403.54817639 26.80910379 414.42050685 26.79403328 425.29301553 C26.78684914 430.84137607 26.78778696 436.38942408 26.81044388 441.93774986 C26.83098394 447.01625315 26.82847991 452.09420262 26.80756903 457.17269958 C26.80406469 459.01044429 26.80902395 460.84822856 26.82327347 462.68592136 C26.94856563 479.95641579 26.94856563 479.95641579 21.1875 486.3125 C20.5275 486.3125 19.8675 486.3125 19.1875 486.3125 C18.960625 486.910625 18.73375 487.50875 18.5 488.125 C16.51083162 491.44028063 13.56008822 492.62620589 10.1875 494.3125 C-18.28742702 496.04948806 -47.10735056 492.76198925 -75.38809204 489.81054688 C-98.79103676 487.38182007 -122.23474555 485.4980356 -145.6875 483.625 C-147.58204245 483.47328957 -149.47658388 483.32156648 -151.37112427 483.16983032 C-175.65473235 481.22746722 -199.94152602 479.35672709 -224.25 477.75 C-225.36890625 477.67523437 -226.4878125 477.60046875 -227.640625 477.5234375 C-229.81743707 477.37867414 -231.99454271 477.23827871 -234.171875 477.1015625 C-256.96491537 475.5499236 -256.96491537 475.5499236 -262.8125 469.3125 C-267.25075879 463.37937076 -268.93589855 458.83375666 -268.94951439 451.36514187 C-268.95349213 450.29317041 -268.95349213 450.29317041 -268.95755023 449.19954297 C-268.96525648 446.78645285 -268.96580291 444.37341351 -268.96640015 441.96031189 C-268.9704139 440.2200581 -268.97485198 438.47980524 -268.9796797 436.73955351 C-268.99166086 431.94277265 -268.99729723 427.14600185 -269.00186086 422.34920895 C-269.00781115 417.18132625 -269.01942246 412.01345562 -269.03015137 406.84558105 C-269.05468911 394.3572457 -269.06930484 381.86890634 -269.08221143 369.38055429 C-269.08592246 365.85413189 -269.08989577 362.32770989 -269.0939641 358.80128789 C-269.11920047 336.90992038 -269.14125697 315.01855227 -269.15369225 293.12717342 C-269.15662202 288.05491572 -269.15958367 282.98265804 -269.16259766 277.91040039 C-269.16334371 276.64968995 -269.16408976 275.38897951 -269.16485842 274.09006573 C-269.1775128 253.66597919 -269.21073612 233.24197969 -269.25239949 212.81793385 C-269.29480994 191.85605997 -269.31838629 170.89423066 -269.32361281 149.93231398 C-269.327028 138.1601433 -269.33879601 126.38810863 -269.37171555 114.61598015 C-269.39970498 104.59032832 -269.41072021 94.56484036 -269.39952008 84.5391525 C-269.39433059 79.42396375 -269.39723936 74.30911824 -269.42198563 69.19397926 C-269.44446288 64.5087284 -269.44374998 59.82406763 -269.42478175 55.13880653 C-269.42197962 53.4462584 -269.4275922 51.75367038 -269.44259469 50.06118643 C-269.52923876 39.64759587 -269.04450634 30.8273175 -261.5 22.875 C-255.23920654 19.2350038 -249.28430724 17.86343878 -242.1875 17.25 C-240.96017403 17.14365234 -240.96017403 17.14365234 -239.70805359 17.03515625 C-232.47551863 16.42594519 -225.23921285 15.93635498 -217.99609375 15.47265625 C-204.89079079 14.6153567 -191.79466596 13.6521681 -178.69921875 12.65625 C-177.72330528 12.58213457 -176.74739182 12.50801914 -175.74190521 12.43165779 C-166.62368151 11.73892608 -157.5057107 11.04289921 -148.38793945 10.34423828 C-142.3668951 9.88314872 -136.34564361 9.42484285 -130.32421875 8.96875 C-129.35360378 8.8951123 -128.38298882 8.82147461 -127.38296127 8.74560547 C-113.16152678 7.67033141 -98.93725429 6.70932492 -84.69621277 5.93322754 C-83.46848648 5.86438354 -82.24076019 5.79553955 -80.97583008 5.72460938 C-79.92188553 5.66833374 -78.86794098 5.61205811 -77.78205872 5.55407715 C-74.74802895 5.3072552 -71.81152014 4.82622702 -68.8125 4.3125 C-67.26886495 4.1634904 -65.7227098 4.03823845 -64.17504883 3.93945312 C-63.31007278 3.88269409 -62.44509674 3.82593506 -61.5539093 3.76745605 C-60.63506454 3.71013306 -59.71621979 3.65281006 -58.76953125 3.59375 C-57.80528732 3.53094849 -56.8410434 3.46814697 -55.84757996 3.40344238 C-52.77356293 3.20361133 -49.69930835 3.00779368 -46.625 2.8125 C-43.5685844 2.61665342 -40.51223285 2.41990343 -37.45597839 2.22155762 C-35.55936176 2.09864017 -33.66264873 1.97719718 -31.76582336 1.85754395 C-27.1826645 1.56218255 -22.61170805 1.21239575 -18.0390625 0.7824707 C-12.02032323 0.22163568 -6.04297219 0.05444119 0 0 Z " fill="#005A36" transform="translate(627.8125,289.6875)"/>
<path d="M0 0 C1.13695312 0.37382812 2.27390625 0.74765625 3.4453125 1.1328125 C17.33541539 6.09121802 27.72942063 13.67123037 38 24 C38.6909375 24.6909375 39.381875 25.381875 40.09375 26.09375 C48.52732559 35.14067654 54.41069702 46.61077205 59 58 C59.73283203 59.71896484 59.73283203 59.71896484 60.48046875 61.47265625 C69.08433007 83.98388726 65.47138071 113.87910723 56.11303711 135.33886719 C51.90332848 144.6214709 47.21609938 152.16992159 40.2109375 159.62890625 C38.26845697 161.7120965 36.48142534 163.85290903 34.6875 166.0625 C21.56102589 181.03393936 1.50071063 188.95726897 -18 191 C-35.25189111 191.88639088 -50.22265908 190.54381055 -66 183 C-67.35351562 182.35417969 -67.35351562 182.35417969 -68.734375 181.6953125 C-90.3666703 170.62908051 -104.69399956 153.60220195 -113 131 C-113.53560547 129.67742187 -113.53560547 129.67742187 -114.08203125 128.328125 C-123.94366634 102.17817129 -121.9063627 73.24381423 -111 48 C-99.65865257 24.63943151 -78.20106756 7.98710578 -54.1796875 -1.0625 C-37.01541375 -6.52147391 -16.94181776 -5.67198713 0 0 Z " fill="#F1F5F3" transform="translate(536,378)"/>
<path d="M0 0 C11.23900426 1.24877825 11.23900426 1.24877825 16 7 C20.12708703 14.63417963 19.42599891 23.45647944 19.39440918 31.86560059 C19.39930256 33.4797551 19.40549443 35.09390611 19.41286707 36.7080512 C19.42923255 41.12840988 19.42695561 45.54858981 19.4214921 49.96896815 C19.41881778 54.74205498 19.43336108 59.5150946 19.44558716 64.28816223 C19.46662493 73.6326039 19.47118301 82.9769835 19.46939927 92.32144606 C19.46809105 99.91650942 19.47189886 107.51155344 19.47932434 115.10661316 C19.48142355 117.29529174 19.48352115 119.48397032 19.48561716 121.67264891 C19.48666069 122.76203904 19.48770422 123.85142917 19.48877937 124.97383112 C19.50767437 145.56877815 19.50663353 166.16368955 19.49981004 186.75864166 C19.4942326 205.59873664 19.51506992 224.43869572 19.54817051 243.27875894 C19.58190222 262.62830138 19.59707665 281.9777787 19.59245348 301.32735109 C19.5902086 312.18892133 19.59545511 323.0503659 19.62034607 333.91191101 C19.6413522 343.15683447 19.64495775 352.40156331 19.62604648 361.64649475 C19.61688524 366.36262319 19.61575766 371.07838868 19.63640213 375.79448891 C19.65510024 380.11371641 19.65062194 384.43228338 19.62785631 388.75148565 C19.62366767 390.31193267 19.62787954 391.87243022 19.64145225 393.43282384 C19.71130592 402.0521732 19.35897528 408.90500179 14 416 C13.2575 417.010625 12.515 418.02125 11.75 419.0625 C9 421 9 421 0 421 C0 282.07 0 143.14 0 0 Z " fill="#005632" transform="translate(666,327)"/>
<path d="M0 0 C2.10678038 4.21356076 2.28410946 7.08879751 2.26006222 11.63821793 C2.26577072 12.80399112 2.26577072 12.80399112 2.27159455 13.99331528 C2.28195002 16.61314361 2.2779969 19.23275686 2.27415466 21.8526001 C2.27860493 23.74363631 2.28391827 25.63467065 2.29002339 27.52570224 C2.30423928 32.7345566 2.305866 37.94335141 2.30542648 43.15222239 C2.30707153 48.76518543 2.32013218 54.37812369 2.33161926 59.99107361 C2.35449256 72.26990757 2.36239235 84.54872427 2.36744571 96.82757664 C2.37069997 104.4915677 2.3772208 112.15555372 2.3844471 119.81954193 C2.40401593 141.03053779 2.42049981 162.24152882 2.42332363 183.45253372 C2.42346472 184.47038429 2.42346472 184.47038429 2.42360866 185.5087975 C2.42398715 188.25877674 2.42435115 191.00875598 2.42471164 193.75873522 C2.42498336 195.82857739 2.42526004 197.89841955 2.42553711 199.96826172 C2.42562513 200.6522169 2.42571315 201.33617208 2.42580384 202.04085317 C2.42870923 223.53069387 2.45080386 245.02044463 2.48706055 266.51025391 C2.5277838 290.64812997 2.55146258 314.78592819 2.55178314 338.92384696 C2.55236834 351.70644381 2.56090073 364.4889249 2.58978081 377.271492 C2.61425688 388.15503262 2.62160306 399.03841526 2.60653328 409.92197594 C2.59934902 415.4763913 2.6002873 421.03049447 2.62294388 426.58487511 C2.64348403 431.66904915 2.64097978 436.75267001 2.62006903 441.83683774 C2.61656464 443.67669094 2.62152415 445.51658366 2.63577347 447.35638502 C2.75874506 464.32679321 2.75874506 464.32679321 -3 471 C-3.66 470.67 -4.32 470.34 -5 470 C-4.83785997 469.31621051 -4.67571994 468.63242101 -4.50866657 467.92791063 C-3.93347806 464.61709635 -3.86871798 461.51488798 -3.8613348 458.15342999 C-3.85849258 457.47399966 -3.85565036 456.79456934 -3.85272202 456.09455022 C-3.84438707 453.81340268 -3.84310775 451.532306 -3.84178162 449.25114441 C-3.83721545 447.60103257 -3.83221535 445.95092188 -3.82681805 444.30081254 C-3.81323378 439.76288386 -3.80581774 435.22496268 -3.79939139 430.68701899 C-3.79138873 425.79475502 -3.77769048 420.90250665 -3.76467896 416.01025391 C-3.74291432 407.53289974 -3.72476977 399.05554399 -3.70907402 390.5781765 C-3.6863753 378.32127899 -3.65823246 366.06439876 -3.62875474 353.8075159 C-3.58107888 333.922222 -3.53781467 314.03692104 -3.49731445 294.15161133 C-3.45795951 274.83324636 -3.41653328 255.51488767 -3.37231445 236.1965332 C-3.36959018 235.00603559 -3.36686591 233.81553797 -3.36405908 232.58896466 C-3.3503796 226.61667333 -3.33665933 220.64438208 -3.32291877 214.67209089 C-3.20895407 165.11474035 -3.10214469 115.55737621 -3 66 C-2.01 66.33 -1.02 66.66 0 67 C0 44.89 0 22.78 0 0 Z " fill="#305E44" transform="translate(652,305)"/>
<path d="M0 0 C1.2114267 -0.00563965 2.42285339 -0.0112793 3.67098999 -0.01708984 C5.01544249 -0.01320114 6.3598944 -0.0091048 7.7043457 -0.00482178 C9.11862366 -0.00753149 10.53290021 -0.01109231 11.94717407 -0.01544189 C15.79008561 -0.02457052 19.63288993 -0.02101971 23.47580338 -0.01468372 C27.49428856 -0.00962618 31.51276446 -0.01431449 35.53125 -0.01745605 C42.28004609 -0.02109642 49.02879844 -0.01629477 55.77758789 -0.0067749 C63.58416214 0.00410979 71.39063192 0.00058426 79.19720364 -0.01042771 C85.89535384 -0.0194986 92.59347257 -0.02078684 99.29162693 -0.01555037 C103.29407527 -0.01242958 107.29647448 -0.01202434 111.29891968 -0.01862335 C115.06145502 -0.0243933 118.82385545 -0.02040642 122.58637619 -0.00883484 C123.9686905 -0.00618637 125.35101613 -0.00695654 126.73332596 -0.01136017 C128.61729787 -0.01680938 130.50129453 -0.00877054 132.38525391 0 C133.44049759 0.00075405 134.49574127 0.0015081 135.58296204 0.002285 C138.19262695 0.25396729 138.19262695 0.25396729 141.19262695 2.25396729 C141.4855957 4.85552979 141.4855957 4.85552979 141.38012695 7.87896729 C141.33952148 9.38330322 141.33952148 9.38330322 141.2980957 10.91802979 C141.26329102 11.68888916 141.22848633 12.45974854 141.19262695 13.25396729 C138.51642654 14.59206749 136.46548502 14.3860241 133.46754456 14.39440918 C132.24907837 14.40011932 131.03061218 14.40582947 129.77522278 14.41171265 C128.41769419 14.41295805 127.06016549 14.41408314 125.70263672 14.4151001 C124.27865469 14.41972734 122.85467391 14.42475187 121.43069458 14.43014526 C117.55676866 14.44327883 113.68286008 14.44971587 109.80891538 14.45415592 C107.39037355 14.45708461 104.97183648 14.46118898 102.55329704 14.4656601 C94.9911627 14.47933644 87.42903921 14.48900289 79.86689335 14.49286199 C71.12804702 14.49734573 62.38935688 14.51490762 53.65055805 14.54386258 C46.90147884 14.56545127 40.15244366 14.57556473 33.40333027 14.5769031 C29.3695243 14.577953 25.33586512 14.58389986 21.30209541 14.60172272 C17.5091761 14.61815535 13.71651468 14.62038255 9.92357254 14.61158371 C8.52996189 14.61081079 7.13633765 14.61518954 5.74276161 14.62504196 C3.84344711 14.6376846 1.94402983 14.63012107 0.04469299 14.62145996 C-1.01922385 14.62292652 -2.0831407 14.62439308 -3.17929745 14.62590408 C-5.80737305 14.25396729 -5.80737305 14.25396729 -7.64822483 12.86796188 C-9.185164 10.72793226 -9.20822459 9.30678123 -9.18237305 6.69146729 C-9.19010742 5.90642822 -9.1978418 5.12138916 -9.20581055 4.31256104 C-9.07432617 3.6332251 -8.9428418 2.95388916 -8.80737305 2.25396729 C-5.35285939 -0.04904182 -4.06990301 0.00290825 0 0 Z " fill="#F2F5F3" transform="translate(440.807373046875,636.7460327148438)"/>
<path d="M0 0 C10.34134615 1.14903846 10.34134615 1.14903846 14.625 5.234375 C16.79921026 8.02625863 17.37716389 10.53979939 18 14 C17.34 14 16.68 14 16 14 C15.67 14.66 15.34 15.32 15 16 C14.70867188 15.38511719 14.41734375 14.77023437 14.1171875 14.13671875 C13.70726562 13.32847656 13.29734375 12.52023437 12.875 11.6875 C12.48054687 10.88699219 12.08609375 10.08648437 11.6796875 9.26171875 C9.5410786 6.38205699 7.20892593 5.50595993 4 4 C4.00634791 4.87796203 4.00634791 4.87796203 4.01282406 5.77366066 C4.16147872 26.39072645 4.30162635 47.00784643 4.4375 67.625 C4.44301424 68.46050463 4.44852847 69.29600926 4.4542098 70.15683222 C4.9542199 146.02090865 5.2640042 221.88564715 5.55413705 297.75075233 C5.56252556 299.94418424 5.57092073 302.13761613 5.57931662 304.33104801 C5.72302725 341.88735246 5.86327876 379.44366942 6 417 C6.55429687 416.62746094 7.10859375 416.25492188 7.6796875 415.87109375 C8.40414062 415.39800781 9.12859375 414.92492187 9.875 414.4375 C10.59429688 413.96183594 11.31359375 413.48617188 12.0546875 412.99609375 C12.69664062 412.66738281 13.33859375 412.33867188 14 412 C14.66 412.33 15.32 412.66 16 413 C15.05664976 414.35890966 14.06813633 415.68651581 13.0625 417 C12.24458984 418.11375 12.24458984 418.11375 11.41015625 419.25 C9 421 9 421 0 421 C0 282.07 0 143.14 0 0 Z " fill="#1C5937" transform="translate(666,327)"/>
<path d="M0 0 C1.6302693 0.00252572 3.26055095 0.01761204 4.890625 0.04296875 C5.73866699 0.05013916 6.58670898 0.05730957 7.46044922 0.06469727 C28.23883641 0.32868016 28.23883641 0.32868016 30.140625 2.23046875 C30.22829612 4.30308951 30.24758373 6.37867169 30.23828125 8.453125 C30.23578369 9.58758057 30.23328613 10.72203613 30.23071289 11.89086914 C30.22160889 13.34356201 30.21250488 14.79625488 30.203125 16.29296875 C30.1825 20.89234375 30.161875 25.49171875 30.140625 30.23046875 C17.270625 30.23046875 4.400625 30.23046875 -8.859375 30.23046875 C-8.859375 16.30859375 -8.859375 16.30859375 -7.484375 9.60546875 C-7.29488281 8.56712891 -7.29488281 8.56712891 -7.1015625 7.5078125 C-5.70445493 0.34065065 -5.70445493 0.34065065 0 0 Z " fill="#065937" transform="translate(474.859375,435.76953125)"/>
<path d="M0 0 C11.22 0 22.44 0 34 0 C36.26884422 10.20979899 36.26884422 10.20979899 36.625 14.4375 C36.69976563 15.26121094 36.77453125 16.08492188 36.8515625 16.93359375 C37.06216747 21.28424908 37 25.64425021 37 30 C24.79 30 12.58 30 0 30 C0 20.1 0 10.2 0 0 Z " fill="#065D3A" transform="translate(514,436)"/>
<path d="M0 0 C13.2 0 26.4 0 40 0 C40.04125 3.320625 40.0825 6.64125 40.125 10.0625 C40.14320801 11.09511963 40.16141602 12.12773926 40.18017578 13.19165039 C40.1851709 14.02688232 40.19016602 14.86211426 40.1953125 15.72265625 C40.21102295 16.98734741 40.21102295 16.98734741 40.22705078 18.27758789 C40 21 40 21 38 28 C26.45 28 14.9 28 3 28 C0 11 0 11 0 0 Z " fill="#075432" transform="translate(466,477)"/>
<path d="M0 0 C12.21 0 24.42 0 37 0 C36 10 35 20 34 30 C23.44 29.67 12.88 29.34 2 29 C1.67 25.143125 1.34 21.28625 1 17.3125 C0.84337891 15.5013269 0.84337891 15.5013269 0.68359375 13.65356445 C0.60238281 12.691521 0.52117188 11.72947754 0.4375 10.73828125 C0.35371094 9.75899658 0.26992188 8.77971191 0.18359375 7.77075195 C0.01228802 5.18544772 0 2.59097349 0 0 Z " fill="#065432" transform="translate(514,477)"/>
<path d="M0 0 C1.45116211 -0.04350586 1.45116211 -0.04350586 2.93164062 -0.08789062 C4.32479492 -0.10045898 4.32479492 -0.10045898 5.74609375 -0.11328125 C6.59743896 -0.12786377 7.44878418 -0.14244629 8.32592773 -0.1574707 C10.5625 0.3125 10.5625 0.3125 12.25805664 2.11254883 C17.81075417 11.47720491 16.79688888 20.76500044 16.5625 31.3125 C7.6525 31.3125 -1.2575 31.3125 -10.4375 31.3125 C-11.65930125 21.23263968 -12.79635587 11.48008296 -12.4375 1.3125 C-8.67035688 -0.57107156 -4.1457707 0.04126514 0 0 Z " fill="#085331" transform="translate(570.4375,434.6875)"/>
<path d="M0 0 C9.24 0 18.48 0 28 0 C28.495 4.2075 28.99 8.415 29.5 12.75 C29.65662109 14.0709668 29.81324219 15.39193359 29.97460938 16.75292969 C30.09642578 17.79868164 30.21824219 18.84443359 30.34375 19.921875 C30.46943359 20.99018555 30.59511719 22.05849609 30.72460938 23.15917969 C31 26 31 26 31 30 C22.75 30 14.5 30 6 30 C1.98655457 18.96302506 0 11.44528467 0 0 Z " fill="#085533" transform="translate(429,477)"/>
<path d="M0 0 C1.5631897 0.00785522 1.5631897 0.00785522 3.15795898 0.01586914 C4.17059814 0.0183667 5.1832373 0.02086426 6.2265625 0.0234375 C7.52263428 0.0325415 8.81870605 0.04164551 10.15405273 0.05102539 C16.31061523 0.08196289 16.31061523 0.08196289 22.59155273 0.11352539 C21.60155273 10.01352539 20.61155273 19.91352539 19.59155273 30.11352539 C10.35155273 30.11352539 1.11155273 30.11352539 -8.40844727 30.11352539 C-7.44836867 0.35108884 -7.44836867 0.35108884 0 0 Z " fill="#065030" transform="translate(437.408447265625,435.886474609375)"/>
<path d="M0 0 C0 12.54 0 25.08 0 38 C-9.9 38 -19.8 38 -30 38 C-28.87301587 30.11111111 -28.87301587 30.11111111 -27.3984375 27.1328125 C-27.07689697 26.47909668 -26.75535645 25.82538086 -26.42407227 25.15185547 C-26.07787842 24.48299316 -25.73168457 23.81413086 -25.375 23.125 C-25.015271 22.42391113 -24.65554199 21.72282227 -24.28491211 21.00048828 C-19.09145065 11.12113677 -12.27525508 0 0 0 Z " fill="#025C37" transform="translate(505,388)"/>
<path d="M0 0 C9.57 0 19.14 0 29 0 C24.82089552 22.35820896 24.82089552 22.35820896 21 30 C13.41 30 5.82 30 -2 30 C-2 19.875 -2 19.875 -1.5625 15.52734375 C-1.48128906 14.69710693 -1.40007813 13.86687012 -1.31640625 13.01147461 C-1.21199219 11.99706299 -1.10757813 10.98265137 -1 9.9375 C-0.67 6.658125 -0.34 3.37875 0 0 Z " fill="#06502F" transform="translate(560,477)"/>
<path d="M0 0 C9.9 0 19.8 0 30 0 C30 12.54 30 25.08 30 38 C17.27718137 33.75906046 9.45830349 24.47243012 3.5 12.75 C3.149375 12.06437988 2.79875 11.37875977 2.4375 10.67236328 C0.50742797 6.68672563 0 4.56279347 0 0 Z " fill="#015A35" transform="translate(475,517)"/>
<path d="M0 0 C12.51873066 4.17291022 20.15044862 14.61024851 26 26 C30 34.65909091 30 34.65909091 30 38 C20.1 38 10.2 38 0 38 C0 25.46 0 12.92 0 0 Z " fill="#065735" transform="translate(514,388)"/>
<path d="M0 0 C8.58 0 17.16 0 26 0 C24.17564247 14.59486028 17.53645497 26.10570072 6 35.3125 C2.3559322 38 2.3559322 38 0 38 C0 25.46 0 12.92 0 0 Z " fill="#045734" transform="translate(516,517)"/>
<path d="M0 0 C2.625 -0.4375 2.625 -0.4375 6 0 C8.91808996 2.55584431 11.26539719 5.53079439 13 9 C13.09195619 11.21602644 13.11750018 13.43490207 13.11352539 15.65283203 C13.11367142 16.33587402 13.11381744 17.01891602 13.1139679 17.72265625 C13.11327023 19.9844071 13.10548465 22.246076 13.09765625 24.5078125 C13.09579155 26.07437088 13.09436789 27.64092984 13.09336853 29.20748901 C13.08954743 33.33389898 13.0797206 37.46027384 13.06866455 41.58666992 C13.0584417 45.79605637 13.05386903 50.00544847 13.04882812 54.21484375 C13.03809798 62.47657862 13.02102642 70.73828495 13 79 C12.34 79 11.68 79 11 79 C10.67 152.59 10.34 226.18 10 302 C9.67 302 9.34 302 9 302 C8.99940291 301.38365574 8.99880582 300.76731148 8.99819064 300.13229012 C8.962317 263.62381818 8.90570936 227.11543331 8.82207905 190.60703839 C8.81206128 186.22598166 8.8022172 181.84492455 8.79248047 177.46386719 C8.7905391 176.59165692 8.78859772 175.71944664 8.78659752 174.82080576 C8.75555437 160.687685 8.73859042 146.55458049 8.72680578 132.42143205 C8.71440619 117.9255672 8.68693184 103.42978781 8.64538693 88.93397689 C8.62021727 79.98521505 8.60688524 71.03659487 8.60857043 62.08779714 C8.60860012 55.95593995 8.59402169 49.82422734 8.56783572 43.69242647 C8.55315002 40.15167468 8.54502045 36.61121938 8.55419731 33.0704422 C8.56396847 29.23559096 8.54303731 25.4012638 8.51898193 21.56646729 C8.52674235 20.44196175 8.53450277 19.31745621 8.54249835 18.15887475 C8.53105076 17.13375905 8.51960317 16.10864335 8.50780869 15.05246353 C8.50553036 13.72420182 8.50553036 13.72420182 8.50320601 12.36910653 C7.83460209 9.22130251 6.43446878 8.03442691 4 6 C1.86690808 4.76487921 1.86690808 4.76487921 0 4 C0 2.68 0 1.36 0 0 Z " fill="#125B3A" transform="translate(639,293)"/>
<path d="M0 0 C7.26 0 14.52 0 22 0 C22.92232422 2.29517578 22.92232422 2.29517578 23.86328125 4.63671875 C24.67946893 6.65373429 25.49588728 8.6706565 26.3125 10.6875 C26.91868164 12.19860352 26.91868164 12.19860352 27.53710938 13.74023438 C27.93349609 14.71669922 28.32988281 15.69316406 28.73828125 16.69921875 C29.09962158 17.59471436 29.46096191 18.49020996 29.83325195 19.4128418 C30.95578397 22.0655969 30.95578397 22.0655969 32.64135742 24.58129883 C34 27 34 27 34 31 C20.57052985 28.90833031 10.46956519 16.73248079 1.6171875 7.359375 C0 5 0 5 0 0 Z " fill="#1C4229" transform="translate(442,517)"/>
<path d="M0 0 C-1.3470964 3.48455708 -2.85274541 6.82323226 -4.53125 10.16015625 C-5.25248047 11.5977832 -5.25248047 11.5977832 -5.98828125 13.06445312 C-6.48714844 14.05380859 -6.98601562 15.04316406 -7.5 16.0625 C-7.99886719 17.05572266 -8.49773437 18.04894531 -9.01171875 19.07226562 C-9.93853825 20.91720793 -10.86618053 22.7617373 -11.79492188 24.60571289 C-12.86680823 26.73537041 -13.93375599 28.86751197 -15 31 C-21.93 31 -28.86 31 -36 31 C-30.70897505 17.77243764 -18.74025436 7.13975288 -6.6640625 0.08203125 C-3.82678644 -1.07035213 -2.78417292 -1.14137894 0 0 Z " fill="#0C5030" transform="translate(478,394)"/>
<path d="M0 0 C14.0004241 3.68432213 27.72304289 16.31488408 36 28 C36 28.99 36 29.98 36 31 C29.07 31 22.14 31 15 31 C11.45628217 24.02330552 8.08240951 16.97825747 4.76757812 9.89086914 C4.43822266 9.18696045 4.10886719 8.48305176 3.76953125 7.7578125 C3.47667236 7.1302002 3.18381348 6.50258789 2.88208008 5.85595703 C1.94780473 3.89017756 0.97935689 1.94365915 0 0 Z " fill="#04512F" transform="translate(539,393)"/>
<path d="M0 0 C6.27 0 12.54 0 19 0 C15.15329985 11.54010046 6.48608862 18.81356923 -3 26 C-3.68578125 26.56203125 -4.3715625 27.1240625 -5.078125 27.703125 C-7.85645482 29.90162947 -9.32383366 31.04315955 -12.9375 30.8125 C-13.618125 30.544375 -14.29875 30.27625 -15 30 C-10 20 -5 10 0 0 Z " fill="#0A4E2E" transform="translate(554,519)"/>
<path d="M0 0 C6.27 0 12.54 0 19 0 C19 9.24 19 18.48 19 28 C6.79 28 -5.42 28 -18 28 C-18 25.03 -18 22.06 -18 19 C-17.64188232 19.64291992 -17.28376465 20.28583984 -16.91479492 20.94824219 C-14.21060172 23.84586295 -12.27160319 23.6233221 -8.36328125 23.828125 C-6.41518555 23.94414062 -6.41518555 23.94414062 -4.42773438 24.0625 C-3.05600831 24.12540969 -1.68426316 24.18790439 -0.3125 24.25 C1.07106054 24.32638795 2.45452741 24.40449318 3.83789062 24.484375 C7.22435965 24.6731677 10.61210672 24.83877277 14 25 C14 18.07 14 11.14 14 4 C12.246875 4.0825 10.49375 4.165 8.6875 4.25 C5.69921875 4.390625 5.69921875 4.390625 3 4 C2.01 2.68 1.02 1.36 0 0 Z M0 4 C3 5 3 5 3 5 Z " fill="#084626" transform="translate(485,437)"/>
<path d="M0 0 C1.65 0 3.3 0 5 0 C5 12.54 5 25.08 5 38 C-4.9 38 -14.8 38 -25 38 C-24.24691028 32.72837193 -23.72441325 29.71826172 -21.625 25.125 C-21.20476562 24.17882812 -20.78453125 23.23265625 -20.3515625 22.2578125 C-19 20 -19 20 -16 19 C-16.52320013 25.27840157 -17.93903646 27.87807293 -21 34 C-13.74 34.66 -6.48 35.32 1 36 C1 26.1 1 16.2 1 6 C-0.98 7.32 -2.96 8.64 -5 10 C-5.66 10 -6.32 10 -7 10 C-5.3373632 6.0701312 -2.9738098 3.04296817 0 0 Z " fill="#154528" transform="translate(500,388)"/>
<path d="M0 0 C10.89 0 21.78 0 33 0 C33.90238747 2.70716242 34.11851302 4.23776768 34.09765625 7.01171875 C34.09443359 7.76904297 34.09121094 8.52636719 34.08789062 9.30664062 C34.07532227 10.48516602 34.07532227 10.48516602 34.0625 11.6875 C34.05798828 12.48478516 34.05347656 13.28207031 34.04882812 14.10351562 C34.0370585 16.06904257 34.01912348 18.03453085 34 20 C33.34 20 32.68 20 32 20 C31.14382011 14.11376326 31 9.12321914 31 3 C21.76 3 12.52 3 3 3 C3 11.25 3 19.5 3 28 C13.23 28 23.46 28 34 28 C34.33 27.34 34.66 26.68 35 26 C35 26.99 35 27.98 35 29 C23.45 29 11.9 29 0 29 C0 19.43 0 9.86 0 0 Z " fill="#1D442B" transform="translate(515,436)"/>
<path d="M0 0 C4.95 0 9.9 0 15 0 C16.50437846 3.45648861 18.00367422 6.91502747 19.5 10.375 C19.92925781 11.35984375 20.35851562 12.3446875 20.80078125 13.359375 C21.40986328 14.77089844 21.40986328 14.77089844 22.03125 16.2109375 C22.40830078 17.08024902 22.78535156 17.94956055 23.17382812 18.84521484 C24 21 24 21 24 23 C16.44417926 21.25634906 10.17119766 16.31591198 6.0625 9.8125 C4.61026448 7.25677369 3.30274049 4.63469042 2 2 C1.34 2 0.68 2 0 2 C0 1.34 0 0.68 0 0 Z " fill="#025E38" transform="translate(447,520)"/>
<path d="M0 0 C9.9 0 19.8 0 30 0 C30 12.54 30 25.08 30 38 C28.35 37.34 26.7 36.68 25 36 C26.485 35.505 26.485 35.505 28 35 C28 24.44 28 13.88 28 3 C19.75 3 11.5 3 3 3 C9.9373295 18.91410942 9.9373295 18.91410942 21 32 C17.50640625 32 17.20430181 31.65885189 14.8125 29.3125 C7.55421805 21.74601075 0 10.66309773 0 0 Z " fill="#103C1F" transform="translate(475,517)"/>
<path d="M0 0 C11.51824087 3.60152488 19.51354912 10.77188857 28 19 C28.60972656 19.52207031 29.21945312 20.04414063 29.84765625 20.58203125 C31 22 31 22 31 26 C26.37076205 24.07465785 23.58406523 20.59767255 20.21875 16.99609375 C18.0267228 15.02404111 16.87374777 14.37228096 14 14 C14 16.31 14 18.62 14 21 C13.34 21 12.68 21 12 21 C11.8453125 20.0409375 11.8453125 20.0409375 11.6875 19.0625 C11.460625 18.381875 11.23375 17.70125 11 17 C10.01 16.67 9.02 16.34 8 16 C6.92504883 14.41772461 6.92504883 14.41772461 5.95703125 12.40234375 C5.60576172 11.68369141 5.25449219 10.96503906 4.89257812 10.22460938 C4.53615234 9.46986328 4.17972656 8.71511719 3.8125 7.9375 C3.44447266 7.17888672 3.07644531 6.42027344 2.69726562 5.63867188 C1.78914503 3.76346181 0.89338985 1.88227267 0 0 Z " fill="#0E3C20" transform="translate(539,393)"/>
<path d="M0 0 C1.98 0.66 3.96 1.32 6 2 C5.67 2.99 5.34 3.98 5 5 C4.84820986 7.3555448 4.75100711 9.71475123 4.68359375 12.07421875 C4.66281265 12.7580513 4.64203156 13.44188385 4.62062073 14.1464386 C4.55533846 16.3266921 4.49633983 18.50706405 4.4375 20.6875 C4.39429447 22.16732986 4.35067953 23.64714783 4.30664062 25.12695312 C4.19890975 28.75118254 4.09967893 32.37550438 4 36 C9.94 36 15.88 36 22 36 C22 36.66 22 37.32 22 38 C14.74 38 7.48 38 0 38 C0 25.46 0 12.92 0 0 Z " fill="#214C33" transform="translate(514,388)"/>
<path d="M0 0 C0.66 0 1.32 0 2 0 C3.11817376 3.35452129 3.1202587 5.86418264 3.11352539 9.39916992 C3.11367142 10.04334366 3.11381744 10.6875174 3.1139679 11.35121155 C3.11327195 13.47766502 3.10549448 15.6040306 3.09765625 17.73046875 C3.09579094 19.20591687 3.09436757 20.68136561 3.09336853 22.15681458 C3.08955226 26.03825595 3.07972956 29.91965985 3.06866455 33.80108643 C3.05843131 37.76256808 3.05386681 41.72405581 3.04882812 45.68554688 C3.0381065 53.45704833 3.02104075 61.22851891 3 69 C2.34 69 1.68 69 1 69 C0.01070455 45.99098758 -0.11772198 23.02641952 0 0 Z " fill="#031E04" transform="translate(649,303)"/>
<path d="M0 0 C8.58 0 17.16 0 26 0 C25.67 2.31 25.34 4.62 25 7 C24.34 6.01 23.68 5.02 23 4 C20.78067723 3.49223956 20.78067723 3.49223956 18.2109375 3.48828125 C17.26992188 3.45283203 16.32890625 3.41738281 15.359375 3.38085938 C14.37453125 3.35830078 13.3896875 3.33574219 12.375 3.3125 C11.38242187 3.27833984 10.38984375 3.24417969 9.3671875 3.20898438 C6.91157094 3.12634343 4.45631859 3.05724873 2 3 C2.0721875 3.94617188 2.144375 4.89234375 2.21875 5.8671875 C2.96387818 16.25913553 3.10849888 26.58410724 3 37 C1.515 37.495 1.515 37.495 0 38 C0 25.46 0 12.92 0 0 Z " fill="#042E11" transform="translate(516,517)"/>
<path d="M0 0 C2.625 -0.4375 2.625 -0.4375 6 0 C9.66581684 2.90737198 11.72362861 5.91425526 12.875 10.4375 C12.91625 11.283125 12.9575 12.12875 13 13 C12.67 12.01 12.34 11.02 12 10 C11.34 10 10.68 10 10 10 C10.03029297 11.02955811 10.06058594 12.05911621 10.09179688 13.11987305 C10.59940056 30.57753127 11.09754295 48.03388472 11.125 65.5 C11.12951172 66.67135498 11.13402344 67.84270996 11.13867188 69.04956055 C11.12902443 74.47343696 10.96694908 79.65875748 10 85 C9.67 85 9.34 85 9 85 C8.99635437 84.06927673 8.99270874 83.13855347 8.98895264 82.17962646 C8.95201667 73.40984174 8.89425963 64.64040861 8.81609726 55.87089157 C8.77658224 51.36231781 8.74441364 46.85394054 8.72900391 42.34521484 C8.71386363 37.99426964 8.67946547 33.64386447 8.63169098 29.29315948 C8.61684992 27.63302554 8.60895742 25.97281451 8.60811615 24.31261444 C8.60575281 21.98744587 8.57872744 19.66377745 8.54589844 17.33886719 C8.5509288 16.6519429 8.55595917 15.96501862 8.56114197 15.25727844 C8.48830044 11.9245217 8.20808639 10.26161215 6.10650635 7.6194458 C4.13188077 6.10138766 2.28537367 4.97944586 0 4 C0 2.68 0 1.36 0 0 Z " fill="#135334" transform="translate(639,293)"/>
<path d="M0 0 C0.78552246 0.01047363 1.57104492 0.02094727 2.38037109 0.03173828 C3.23115234 0.03818359 4.08193359 0.04462891 4.95849609 0.05126953 C6.29267578 0.07640625 6.29267578 0.07640625 7.65380859 0.10205078 C8.99958984 0.11558594 8.99958984 0.11558594 10.37255859 0.12939453 C12.59157445 0.15300108 14.81005937 0.18592768 17.02880859 0.22705078 C15.04880859 1.21705078 15.04880859 1.21705078 13.02880859 2.22705078 C14.01880859 3.71205078 14.01880859 3.71205078 15.02880859 5.22705078 C10.73880859 5.88705078 6.44880859 6.54705078 2.02880859 7.22705078 C1.36880859 9.86705078 0.70880859 12.50705078 0.02880859 15.22705078 C-0.63119141 15.22705078 -1.29119141 15.22705078 -1.97119141 15.22705078 C-2.30119141 13.57705078 -2.63119141 11.92705078 -2.97119141 10.22705078 C-3.96119141 10.72205078 -3.96119141 10.72205078 -4.97119141 11.22705078 C-4.85709547 9.76782385 -4.72953597 8.30964481 -4.59619141 6.85205078 C-4.52658203 6.03994141 -4.45697266 5.22783203 -4.38525391 4.39111328 C-3.83505214 1.51553046 -2.97865838 0.3430954 0 0 Z " fill="#196342" transform="translate(472.97119140625,435.77294921875)"/>
<path d="M0 0 C33.0388932 -0.30740453 33.0388932 -0.30740453 38 3 C32.7896418 3.84386781 27.71466724 4.19910801 22.44140625 4.31640625 C21.25767677 4.3475779 21.25767677 4.3475779 20.05003357 4.37937927 C17.55426891 4.44423305 15.05840822 4.50345805 12.5625 4.5625 C10.86001652 4.60574642 9.15754238 4.64936256 7.45507812 4.69335938 C3.30348127 4.79984763 -0.84821118 4.90129147 -5 5 C-5 4.67 -5 4.34 -5 4 C-3.02 4 -1.04 4 1 4 C0.67 2.68 0.34 1.36 0 0 Z " fill="#116845" transform="translate(599,778)"/>
<path d="M0 0 C3.81248345 -0.02936502 7.62493726 -0.04692035 11.4375 -0.0625 C12.50677734 -0.07087891 13.57605469 -0.07925781 14.67773438 -0.08789062 C20.87624228 -0.10684631 26.8549481 0.17936741 33 1 C33 1.66 33 2.32 33 3 C29.41922407 4.08895891 25.99531977 4.20189808 22.265625 4.31640625 C20.97011719 4.35830078 19.67460937 4.40019531 18.33984375 4.44335938 C16.97656524 4.48316671 15.61328394 4.52287906 14.25 4.5625 C12.87108125 4.60572274 11.49217474 4.64933821 10.11328125 4.69335938 C6.7422881 4.79943958 3.37122174 4.9014985 0 5 C0 3.35 0 1.7 0 0 Z " fill="#116743" transform="translate(440,765)"/>
<path d="M0 0 C1.11346788 2.80033839 1.03510273 3.90143703 0.00390625 6.796875 C-1.99804688 10.8984375 -1.99804688 10.8984375 -4 15 C3.26 15.66 10.52 16.32 18 17 C17.67 17.66 17.34 18.32 17 19 C8.75 19 0.5 19 -8 19 C-7.23870034 13.67090236 -6.71645334 10.73970122 -4.5625 6.125 C-4.13066406 5.17882812 -3.69882812 4.23265625 -3.25390625 3.2578125 C-2 1 -2 1 0 0 Z " fill="#0C3D1F" transform="translate(483,407)"/>
<path d="M0 0 C3.62791065 1.20930355 4.0946994 2.56510005 5.75195312 5.86914062 C6.21504883 6.83110352 6.21504883 6.83110352 6.6875 7.8125 C7.00783203 8.44220703 7.32816406 9.07191406 7.65820312 9.72070312 C9.3380728 13.13416964 10 15.12193963 10 19 C0.80500377 17.59543574 -6.42311158 11.20946449 -13 5 C-12.01 4.67 -11.02 4.34 -10 4 C-7.6953125 5.58203125 -7.6953125 5.58203125 -5.125 7.8125 C-1.84895284 10.64272423 0.88343076 12.60567816 5 14 C4.6390625 13.15695312 4.278125 12.31390625 3.90625 11.4453125 C3.4421875 10.34960938 2.978125 9.25390625 2.5 8.125 C2.0359375 7.03445313 1.571875 5.94390625 1.09375 4.8203125 C0 2 0 2 0 0 Z " fill="#193A22" transform="translate(466,529)"/>
<path d="M0 0 C1.2068605 9.42021667 1.2068605 9.42021667 -1.60546875 13.1015625 C-4.80976294 15.63854589 -6.84914189 17.04795242 -11 16.875 C-11.99 16.441875 -11.99 16.441875 -13 16 C-5.17866005 0 -5.17866005 0 0 0 Z " fill="#13321D" transform="translate(552,533)"/>
<path d="M0 0 C-1.68673918 4.49797113 -3.81673892 8.72886302 -6 13 C-6.99 13 -7.98 13 -9 13 C-9.33 11.02 -9.66 9.04 -10 7 C-11.32 7 -12.64 7 -14 7 C-12.79476952 3.38430856 -11.92814436 3.05330455 -8.6875 1.25 C-7.90761719 0.80140625 -7.12773437 0.3528125 -6.32421875 -0.109375 C-3.69699083 -1.11611108 -2.59072612 -0.97226335 0 0 Z " fill="#12371F" transform="translate(478,394)"/>
<path d="M0 0 C2.77109307 -0.05392397 5.54113818 -0.09363455 8.3125 -0.125 C9.09818359 -0.14175781 9.88386719 -0.15851563 10.69335938 -0.17578125 C11.45068359 -0.18222656 12.20800781 -0.18867188 12.98828125 -0.1953125 C13.68477783 -0.20578613 14.38127441 -0.21625977 15.09887695 -0.22705078 C17 0 17 0 20 2 C20 2.99 20 3.98 20 5 C14.06 5 8.12 5 2 5 C2.66 4.01 3.32 3.02 4 2 C2.68 1.34 1.36 0.68 0 0 Z " fill="#1E6A49" transform="translate(587,292)"/>
<path d="M0 0 C0.99 0.66 1.98 1.32 3 2 C3 3.32 3 4.64 3 6 C-5.25 6 -13.5 6 -22 6 C-21.67 5.01 -21.34 4.02 -21 3 C-14.07 3 -7.14 3 0 3 C0 2.01 0 1.02 0 0 Z " fill="#062E13" transform="translate(457,501)"/>
<path d="M0 0 C2.625 -0.4375 2.625 -0.4375 6 0 C9.66581684 2.90737198 11.72362861 5.91425526 12.875 10.4375 C12.91625 11.283125 12.9575 12.12875 13 13 C12.67 12.01 12.34 11.02 12 10 C11.34 10 10.68 10 10 10 C9.67 11.32 9.34 12.64 9 14 C8.62875 12.906875 8.2575 11.81375 7.875 10.6875 C6.5201201 7.45411511 6.02341962 7.01423545 2.8125 5.0625 C1.884375 4.711875 0.95625 4.36125 0 4 C0 2.68 0 1.36 0 0 Z " fill="#0F3B1F" transform="translate(639,293)"/>
<path d="M0 0 C3.56695591 1.1889853 4.28715826 2.34748618 6.5 5.3125 C7.38171875 6.48232422 7.38171875 6.48232422 8.28125 7.67578125 C9.13203125 8.82626953 9.13203125 8.82626953 10 10 C10.99963646 11.33360591 11.99951202 12.66703279 13 14 C9.16549144 12.45212498 6.97444301 10.06277254 4.25 7 C3.45078125 6.113125 2.6515625 5.22625 1.828125 4.3125 C0 2 0 2 0 0 Z " fill="#0C3B1D" transform="translate(483,536)"/>
<path d="M0 0 C0.66 0.33 1.32 0.66 2 1 C-0.31 3.31 -2.62 5.62 -5 8 C-5 5 -5 5 -2.5 2.3125 C-1.675 1.549375 -0.85 0.78625 0 0 Z " fill="#104E2E" transform="translate(498,389)"/>
</svg>
